<svg width="292" height="275" viewBox="0 0 292 275" fill="none" xmlns="http://www.w3.org/2000/svg">
<path d="M149.256 204.589L144.272 212.661L142.632 214.968L151.441 219.726L157.392 209.926L149.256 204.589Z" fill="#EFC79C"/>
<path d="M138.162 118.741C138.162 118.741 191.228 135.389 198.544 144.264C205.86 153.139 158.081 211.573 158.081 211.573L147.153 205.026C147.153 205.026 162.711 166.692 176.229 159.971C178.929 155.339 151.305 152.071 127.997 150.62C104.689 149.169 109.021 135.271 116.548 118.22C130.192 112.385 138.162 118.741 138.162 118.741Z" fill="#1D3D63"/>
<path d="M132.062 40.0311C132.062 40.0311 137.68 28.4701 138.456 21.8091C146.574 32.3421 153.165 37.4141 153.318 37.8741C146.864 44.7741 145.418 55.4741 145.418 55.4741L132.062 40.0311Z" fill="#F7E08D"/>
<path d="M52.685 178.284L43.871 178.273C42.6887 178.272 41.5226 178.548 40.4671 179.081C39.4115 179.614 38.4961 180.387 37.795 181.339L30.357 191.439C29.4557 192.661 28.9447 194.128 28.8912 195.645C28.8376 197.163 29.244 198.661 30.057 199.944L33.725 205.726L52.685 178.284Z" fill="#FF3355"/>
<path d="M29.605 194.889L37.043 184.789C37.7441 183.837 38.6595 183.064 39.715 182.531C40.7706 181.998 41.9367 181.722 43.119 181.723L50.303 181.732L52.685 178.283L43.871 178.272C42.6887 178.271 41.5226 178.547 40.467 179.08C39.4115 179.613 38.4961 180.386 37.795 181.338L30.357 191.438C29.3773 192.777 28.8685 194.403 28.91 196.061C29.1052 195.65 29.3379 195.258 29.605 194.889Z" fill="#FF7190"/>
<path d="M258.034 274.603C276.305 274.603 291.116 259.792 291.116 241.521C291.116 223.251 276.305 208.439 258.034 208.439C239.763 208.439 224.952 223.251 224.952 241.521C224.952 259.792 239.763 274.603 258.034 274.603Z" fill="#333333"/>
<path d="M258.035 267.05C272.134 267.05 283.564 255.62 283.564 241.521C283.564 227.422 272.134 215.992 258.035 215.992C243.936 215.992 232.506 227.422 232.506 241.521C232.506 255.62 243.936 267.05 258.035 267.05Z" fill="#FFECC5"/>
<path d="M258.034 261.171C268.887 261.171 277.685 252.373 277.685 241.52C277.685 230.667 268.887 221.869 258.034 221.869C247.181 221.869 238.383 230.667 238.383 241.52C238.383 252.373 247.181 261.171 258.034 261.171Z" fill="#E2E2E2"/>
<path d="M258.034 258.456C267.388 258.456 274.97 250.874 274.97 241.52C274.97 232.167 267.388 224.584 258.034 224.584C248.681 224.584 241.098 232.167 241.098 241.52C241.098 250.874 248.681 258.456 258.034 258.456Z" fill="#A5A5A5"/>
<path d="M248.51 204.25L241.204 206.953L254.899 243.971L262.205 241.268L248.51 204.25Z" fill="#E2E2E2"/>
<path d="M258.034 246.626C260.853 246.626 263.139 244.341 263.139 241.521C263.139 238.702 260.853 236.416 258.034 236.416C255.215 236.416 252.929 238.702 252.929 241.521C252.929 244.341 255.215 246.626 258.034 246.626Z" fill="#333333"/>
<path d="M258.034 244.112C259.465 244.112 260.625 242.952 260.625 241.521C260.625 240.09 259.465 238.93 258.034 238.93C256.603 238.93 255.443 240.09 255.443 241.521C255.443 242.952 256.603 244.112 258.034 244.112Z" fill="#7F7F7F"/>
<path d="M72.254 274.358C90.5247 274.358 105.336 259.547 105.336 241.276C105.336 223.005 90.5247 208.194 72.254 208.194C53.9833 208.194 39.172 223.005 39.172 241.276C39.172 259.547 53.9833 274.358 72.254 274.358Z" fill="#333333"/>
<path d="M72.254 266.805C86.3533 266.805 97.783 255.375 97.783 241.276C97.783 227.177 86.3533 215.747 72.254 215.747C58.1547 215.747 46.725 227.177 46.725 241.276C46.725 255.375 58.1547 266.805 72.254 266.805Z" fill="#FFECC5"/>
<path d="M72.253 260.927C83.106 260.927 91.904 252.129 91.904 241.276C91.904 230.423 83.106 221.625 72.253 221.625C61.4001 221.625 52.6021 230.423 52.6021 241.276C52.6021 252.129 61.4001 260.927 72.253 260.927Z" fill="#E2E2E2"/>
<path d="M72.253 258.211C81.6065 258.211 89.189 250.629 89.189 241.275C89.189 231.922 81.6065 224.339 72.253 224.339C62.8995 224.339 55.317 231.922 55.317 241.275C55.317 250.629 62.8995 258.211 72.253 258.211Z" fill="#A5A5A5"/>
<path d="M72.254 246.381C75.0735 246.381 77.359 244.096 77.359 241.276C77.359 238.457 75.0735 236.171 72.254 236.171C69.4346 236.171 67.149 238.457 67.149 241.276C67.149 244.096 69.4346 246.381 72.254 246.381Z" fill="#333333"/>
<path d="M72.254 243.867C73.685 243.867 74.845 242.707 74.845 241.276C74.845 239.845 73.685 238.685 72.254 238.685C70.8231 238.685 69.663 239.845 69.663 241.276C69.663 242.707 70.8231 243.867 72.254 243.867Z" fill="#7F7F7F"/>
<path d="M231.797 218.489C231.797 218.489 258.891 205.176 287.65 212.579C287.439 197.619 275.958 177.351 241.656 185.591C207.354 193.831 231.797 218.489 231.797 218.489Z" fill="#03C8FF"/>
<path d="M239.697 187.316C233.832 188.725 229.697 190.616 226.852 192.78C225.816 193.839 224.974 195.072 224.364 196.422C228.011 194.144 232.031 192.526 236.239 191.644C265.112 184.709 277.801 197.969 281.224 211.262C282.666 211.49 284.115 211.762 285.571 212.089C284.304 197.441 272.335 179.476 239.697 187.316Z" fill="#03C8FF"/>
<path d="M223.837 84.8213C223.837 84.8213 231.137 97.7003 224.443 107.121C218.689 105.7 223.837 84.8213 223.837 84.8213Z" fill="#EFEFEF"/>
<path d="M241.656 185.591L252.246 182.613C252.246 182.613 242.389 152.913 216.446 108.459C214.146 109.453 211.546 110.244 211.546 110.244L241.656 185.591Z" fill="#03C8FF"/>
<path d="M201.939 110.626C201.939 110.626 224.822 165.298 211.426 195.055C208.796 205.187 221.583 202.442 221.583 202.442C221.583 202.442 236.23 169.474 205.739 108.442C204.321 107.599 201.939 110.626 201.939 110.626Z" fill="#03C8FF"/>
<path d="M158.531 158.785L85.805 158.685C74.145 158.669 37.3 174.578 25.881 223.967L97.188 224.061C106.088 224.073 107.836 240.032 107.836 240.032L197.089 240.15C207.522 240.164 225.989 199.989 216.194 179.416C211.87 200.891 202.343 211.925 191.594 214.98C183.331 217.329 159.102 217.116 148.35 216.893C146.801 216.859 145.307 216.307 144.109 215.325C142.91 214.343 142.076 212.987 141.739 211.474C140.401 205.516 138.782 195.54 140.384 186.988C142.862 173.8 157.287 171.978 158.531 158.785Z" fill="#03C8FF"/>
<path d="M24.343 226.731L111.338 226.846C111.338 226.846 124.032 199.705 113.926 184.272C103.82 168.839 62.157 173.617 44.415 189.244C26.673 204.871 24.343 226.731 24.343 226.731Z" fill="#03C8FF"/>
<path d="M108.48 226.842C111.001 220.755 118.338 200.508 110.18 188.151C100.998 174.238 64.645 177.608 46.407 190.658C65.707 181.358 94.744 180.246 102.807 192.467C109.551 202.685 105.707 218.294 102.742 226.835L108.48 226.842Z" fill="#03C8FF"/>
<path d="M105.35 230.75L178.076 230.85C193.956 230.871 225.276 206.287 219.002 168.534C212.728 130.781 203.087 112.818 203.087 112.818L214.139 109.457C214.139 109.457 235.258 150.604 239.845 162.885C244.432 175.166 251.292 208.161 226.406 230.91C216.269 239.41 208.439 242.854 196.932 242.839L108.556 242.722L105.35 230.75Z" fill="#03C8FF"/>
<path d="M239.845 162.881C235.258 150.6 214.139 109.453 214.139 109.453L210.014 110.707C215.091 121.279 229.733 152.215 232.939 163.946C236.394 176.591 243.739 210.488 218.85 233.24C214.776 236.84 210.201 239.829 205.268 242.114C212.668 240.714 218.906 237.2 226.406 230.914C251.292 208.161 244.431 175.161 239.845 162.881Z" fill="#03C8FF"/>
<path d="M179.683 234.035C195.563 234.056 227.898 208.358 221.625 170.605C215.962 136.524 206.233 116.073 204.393 112.417L203.087 112.817C203.087 112.817 212.73 130.781 219.002 168.533C225.274 206.285 193.956 230.87 178.076 230.849L105.35 230.749L106.203 233.937L179.683 234.035Z" fill="#4C4C4C"/>
<path d="M90.621 143.045C90.621 143.045 79.093 158.68 91.175 158.696L158.531 158.785C161.831 158.785 166.331 146.137 160.237 145.669C154.143 145.201 135.263 147.477 120.998 144.236C106.733 140.995 95 137.988 90.621 143.045Z" fill="#4C4C4C"/>
<path d="M202.162 113.733C202.162 113.733 216.898 108.92 218.74 108.462C220.582 108.004 224.495 107.549 224.495 107.549C224.495 107.549 222.101 89.8242 224.524 84.8792C219.353 79.9242 212.101 81.5262 204.497 88.6502C196.893 95.7742 194.244 97.0372 194.817 98.9942C195.39 100.951 202.162 113.733 202.162 113.733Z" fill="#03C8FF"/>
<path d="M203.379 95.9451L202.856 95.0621L213.302 88.8881C213.685 88.6621 214.016 88.3584 214.274 87.9968C214.533 87.6351 214.712 87.2234 214.802 86.7881L218.911 66.6101L219.916 66.8151L215.808 86.9921C215.69 87.5683 215.452 88.1135 215.111 88.5926C214.77 89.0717 214.332 89.4741 213.826 89.7741L203.379 95.9451Z" fill="#A5A5A5"/>
<path d="M209.088 99.7319C209.093 96.2205 206.418 93.3704 203.113 93.3661C199.808 93.3617 197.125 96.2048 197.12 99.7162C197.116 103.228 199.791 106.078 203.096 106.082C206.401 106.086 209.084 103.243 209.088 99.7319Z" fill="#EFC100"/>
<path d="M189.075 94.2701C189.075 94.2701 195.775 94.0471 198.205 91.8261C200.635 89.6051 203.312 89.6731 205.762 91.7261C208.212 93.7791 210.126 97.8861 209.068 100.173C208.637 101.18 207.862 102.001 206.881 102.49C205.9 102.978 204.778 103.101 203.714 102.838C204.402 104.45 200.592 104.691 198.7 104.015C196.808 103.339 192.361 102.209 190.6 102.59C189.062 100.598 189.075 94.2701 189.075 94.2701Z" fill="#21457A"/>
<path d="M199.662 108.955C201.035 111.606 202.162 113.733 202.162 113.733C202.162 113.733 216.898 108.92 218.74 108.462C220.582 108.004 224.495 107.549 224.495 107.549C224.495 107.549 224.057 104.299 223.745 100.196C217.921 106.344 208.696 108.422 199.662 108.955Z" fill="#03C8FF"/>
<path d="M202.415 101.766C204.258 101.766 205.752 100.272 205.752 98.4293C205.752 96.5863 204.258 95.0923 202.415 95.0923C200.572 95.0923 199.078 96.5863 199.078 98.4293C199.078 100.272 200.572 101.766 202.415 101.766Z" fill="#353535"/>
<path d="M221.052 64.6039C221.942 59.3688 220.995 54.8411 218.935 54.491C216.876 54.141 214.485 58.1011 213.595 63.3362C212.705 68.5713 213.653 73.099 215.713 73.449C217.772 73.7991 220.162 69.839 221.052 64.6039Z" fill="#03C8FF"/>
<path d="M219.094 64.2722C219.803 60.1021 219.316 56.5412 218.007 56.3186C216.698 56.0961 215.063 59.2963 214.354 63.4664C213.645 67.6365 214.131 71.1975 215.44 71.42C216.749 71.6425 218.385 68.4423 219.094 64.2722Z" fill="#EFEFEF"/>
<path d="M160.962 207.119L157.268 215.86L155.999 218.39L165.431 221.748L169.816 211.161L160.962 207.119Z" fill="#FFDAAE"/>
<path d="M139.015 121.361C139.015 121.361 193.626 131.889 201.901 139.879C210.176 147.869 170.32 213.118 170.32 213.118L158.72 207.852C158.72 207.852 168.84 166.222 181.509 158.012C183.663 153.105 155.851 152.99 132.528 154.187C109.205 155.384 101.555 139.11 107.102 121.319C120 113.969 139.015 121.361 139.015 121.361Z" fill="#21457A"/>
<path d="M170.32 213.115C170.32 213.115 210.175 147.865 201.901 139.876C195.783 133.969 164.348 126.676 148.369 123.276C142.104 123.538 136.164 126.135 131.718 130.557C144.38 127.927 184.643 137.186 192.465 139.268C200.287 141.35 200.858 145.378 198.317 152.168C195.863 158.724 174.144 202.788 168.402 212.249L170.32 213.115Z" fill="#275389"/>
<path d="M106.409 125.345C106.409 125.345 101.037 66.6873 132.062 40.0312C139.729 43.4162 145.854 52.3243 148.913 59.9993C151.972 67.6743 149.759 116.463 148.834 120.144C148.592 121.104 146.243 122.228 142.683 123.278C132.597 126.255 115.477 128.986 106.409 125.345Z" fill="#52A5F6"/>
<path d="M131.723 126.861C131.723 126.861 143.544 121.868 145.263 98.3613C146.982 74.8543 146.689 63.8853 146.689 63.8853C146.689 63.8853 152.189 81.3773 152.481 93.3073C152.773 105.237 150.913 118.429 148.604 124.107C146.295 129.785 131.723 126.861 131.723 126.861Z" fill="#21457A"/>
<path d="M134.477 67.9221C136.187 78.2501 141.903 103.208 146.551 108.022C154.232 115.974 191.206 105.512 191.206 105.512L189.994 94.2851C178.487 94.1171 162.833 94.0851 160.38 93.0041C157.927 91.9231 153.012 67.6511 151.637 62.5861C150.262 57.5211 146.394 54.4381 139.95 54.7361C133.506 55.0341 133.871 64.2671 134.477 67.9221Z" fill="#67B7F9"/>
<path d="M109.398 127.25C109.398 127.25 108.522 93.4951 114.524 80.2501C124.672 63.3251 132.738 55.5221 137.688 53.9801C139.219 53.5555 140.824 53.464 142.394 53.7117C143.963 53.9594 145.462 54.5406 146.788 55.4161C146.17 53.8504 145.298 52.3975 144.207 51.1161C142.837 49.8301 137.007 48.4031 131.825 52.1941C126.643 55.9851 112.908 72.5051 110.298 78.8111C106.635 87.6601 106.074 96.2951 105.907 126.211C106.693 127.819 109.398 127.25 109.398 127.25Z" fill="#21457A"/>
<path d="M157.267 215.861C157.267 215.861 159.183 220.761 165.932 220.536C170.374 224.509 181.766 224.636 185.756 224.491C189.746 224.346 188.356 229.097 182.679 230.624C177.002 232.151 153.22 230.815 150.765 230.812C148.31 230.809 152.008 218.691 157.267 215.861Z" fill="black"/>
<path d="M165.568 29.6822C166.05 28.1622 163.387 25.2482 165.58 20.6482C167.773 16.0482 161.793 12.0702 161.793 12.0702L161.47 12.5242C158.759 8.05417 154.503 5.15616 149.698 5.15016C141.491 5.13916 134.828 13.5282 134.814 23.8872C134.8 34.2462 141.45 42.3222 149.656 42.3332C149.881 42.3332 150.092 42.6332 150.314 42.6222C153.565 44.7482 158.033 42.8332 158.59 41.3522C159.283 39.5122 159.716 38.4202 160.841 38.4212C161.966 38.4222 161.674 36.9842 160.841 36.2662C161.448 36.4662 162.679 36.3522 162.478 35.9202C162.277 35.4882 162.678 34.5682 162.99 32.2202C165.943 33.4932 166.43 30.4882 165.568 29.6822Z" fill="#F7E08D"/>
<path d="M132.999 32.1131L133.352 37.2341C133.352 37.2341 142.022 39.8341 144.56 34.6891C147.098 29.5441 132.999 32.1131 132.999 32.1131Z" fill="#353535"/>
<path d="M158.862 22.1931C158.862 22.1931 162.738 20.9711 164.079 22.2001C164.231 22.6221 163.779 23.1581 163.058 23.0001C162.337 22.8421 159.996 22.2901 158.862 22.1931Z" fill="#353535"/>
<path d="M165.839 27.611C164.654 27.547 157.532 27.576 154.914 27.59L154.923 27.561L150.262 26.061L149.979 26.937L154.032 28.243C154.222 31.118 151.814 34.477 150.681 35.885L148.533 32.874L147.783 33.409L150.143 36.718C150.343 37.488 151.558 41.218 156.765 43.575C163.136 41.297 167.675 31.295 165.839 27.611Z" fill="#BBE0FF"/>
<path d="M157.841 18.8161C158.332 18.8941 165.121 19.6311 167.571 23.0101C169.551 21.3151 166.81 18.4832 166.81 18.4832L157.841 18.8161Z" fill="#353535"/>
<path d="M154.517 18.7511C154.517 18.7511 167.417 20.3511 171.332 21.8511C173.532 12.0731 166.752 3.87807 156.054 0.872073C145.356 -2.13393 134.111 2.98108 130.416 12.9871C126.721 22.9931 129.13 27.4961 131.542 31.2471C133.496 34.2851 136.542 36.4961 145.191 35.9831C150.891 35.6451 150.917 27.4631 151.708 24.4271C152.518 21.3221 152.786 18.3351 154.517 18.7511Z" fill="#03C8FF"/>
<path d="M155.875 0.861138C152.739 -0.0430453 149.441 -0.238182 146.221 0.289864C143 0.81791 139.937 2.05592 137.254 3.91415C141.571 2.43179 146.238 2.30235 150.63 3.54314C159.87 6.12614 166.188 12.5841 166.335 20.5961C167.978 20.8827 169.598 21.2922 171.18 21.8211C173.362 12.0371 166.577 3.85114 155.875 0.861138Z" fill="#03C8FF"/>
<path d="M153.215 17.3782C151.484 16.9612 151.215 19.9482 150.406 23.0542C149.614 26.0902 149.586 34.2732 143.889 34.6102C137.578 34.9852 134.257 33.9102 132.161 32.1182C134.155 34.6932 137.392 36.4462 145.191 35.9842C150.891 35.6462 150.917 27.4642 151.708 24.4282C152.518 21.3222 152.786 18.3352 154.517 18.7512C154.517 18.7512 167.417 20.3512 171.332 21.8512C171.463 21.2605 171.563 20.6634 171.632 20.0622C167.583 18.5792 153.215 17.3782 153.215 17.3782Z" fill="#353535"/>
<path opacity="0.49" d="M172.527 18.3402C172.265 28.474 168.254 38.1507 161.27 45.4982C157.805 47.2042 145.77 42.6982 147.559 30.7152C148.824 22.2312 147.527 16.0502 150.137 14.7492C152.747 13.4482 164.855 18.5612 172.527 18.3402Z" fill="#D2F0FF"/>
<path d="M113.976 164.94L79.77 164.895C78.5674 164.89 77.3864 164.576 76.3407 163.982C75.295 163.388 74.42 162.535 73.8 161.504L69.624 154.522C69.413 154.173 69.1158 153.884 68.7609 153.682C68.4059 153.48 68.0052 153.373 67.597 153.371L10.861 153.297C10.251 153.296 9.66631 153.053 9.23554 152.621C8.80477 152.19 8.56323 151.604 8.56403 150.994C8.56482 150.384 8.80788 149.8 9.23978 149.369C9.67167 148.938 10.257 148.696 10.867 148.697L67.603 148.772C68.8055 148.777 69.9865 149.091 71.0321 149.685C72.0778 150.279 72.9529 151.132 73.573 152.162L77.75 159.144C77.9605 159.494 78.2576 159.784 78.6127 159.985C78.9677 160.187 79.3687 160.294 79.777 160.295L113.977 160.34C114.279 160.341 114.578 160.401 114.857 160.516C115.136 160.632 115.389 160.802 115.602 161.016C115.816 161.23 115.985 161.484 116.1 161.763C116.215 162.042 116.274 162.341 116.274 162.643C116.274 162.945 116.214 163.244 116.098 163.523C115.982 163.802 115.812 164.055 115.598 164.269C115.384 164.482 115.131 164.651 114.851 164.766C114.572 164.882 114.273 164.941 113.971 164.94H113.976Z" fill="#4C4C4C"/>
<path d="M72.8219 76.7385L7.52298 76.6531C4.13361 76.6486 1.38239 79.3926 1.37795 82.782L1.29972 142.544C1.29529 145.933 4.03932 148.685 7.42869 148.689L72.7276 148.774C76.117 148.779 78.8682 146.035 78.8727 142.646L78.9509 82.8836C78.9553 79.4942 76.2113 76.743 72.8219 76.7385Z" fill="#03C8FF"/>
<path d="M78.936 94.0851L78.951 82.8851C78.9521 82.0791 78.7943 81.2808 78.4868 80.5357C78.1793 79.7907 77.7281 79.1135 77.1588 78.5429C76.5896 77.9722 75.9135 77.5193 75.1693 77.21C74.425 76.9007 73.627 76.741 72.821 76.7401L7.52103 76.6531C5.8933 76.6512 4.33146 77.296 3.17908 78.4455C2.02669 79.5951 1.37813 81.1553 1.37601 82.7831L1.36102 93.9831L78.936 94.0851Z" fill="#EA9C00"/>
<path d="M80.307 91.1141L80.318 82.8541C80.3192 82.0197 80.156 81.1933 79.8378 80.422C79.5195 79.6507 79.0525 78.9496 78.4633 78.3588C77.8741 77.7681 77.1743 77.2991 76.4038 76.9788C75.6334 76.6585 74.8074 76.4931 73.973 76.4921L6.37302 76.4031C5.53864 76.4019 4.71222 76.5651 3.94092 76.8833C3.16962 77.2016 2.46856 77.6686 1.87778 78.2578C1.287 78.847 0.818073 79.5468 0.497772 80.3173C0.177471 81.0877 0.0120667 81.9137 0.0110168 82.7481L0 91.0081L80.307 91.1141Z" fill="#03C8FF"/>
</svg>
