<svg width="21" height="20" viewBox="0 0 21 20" fill="none" xmlns="http://www.w3.org/2000/svg">
<path opacity="0.4" d="M18.4248 8.61707C18.0665 8.13748 17.6351 7.69102 17.2861 7.3297C17.2193 7.26065 17.1978 7.1868 17.1666 7.09652L16.273 4.50703C16.1065 4.02464 15.9607 3.60184 15.7991 3.26641C15.6245 2.90378 15.3995 2.57145 15.0346 2.31739C14.6696 2.06333 14.2721 1.96228 13.8607 1.91691C13.4802 1.87495 13.0187 1.87497 12.4923 1.875H12.4923H8.17435H8.17434C7.64792 1.87497 7.18652 1.87495 6.80597 1.91691C6.39458 1.96228 5.99704 2.06333 5.63211 2.31739C5.26717 2.57145 5.04221 2.90378 4.86756 3.26641C4.70601 3.60184 4.56012 4.02465 4.39369 4.50703L4.39368 4.50705L3.50006 7.09652C3.467 7.19231 3.45135 7.25648 3.38045 7.32987C3.03136 7.69119 2.60017 8.13748 2.24185 8.61707C1.79153 9.21979 1.375 9.97589 1.375 10.833V13.7252C1.375 14.4562 1.86944 15.172 2.65396 15.2758L5.25133 15.6196C5.27851 15.6232 5.30591 15.625 5.33333 15.625H15.3333C15.3608 15.625 15.3882 15.6232 15.4153 15.6196L18.0127 15.2758C18.7972 15.172 19.2917 14.4562 19.2917 13.7252V10.833C19.2917 9.97589 18.8751 9.21979 18.4248 8.61707Z" fill="#13B0E4"/>
<path d="M5.41667 16.4599C5.5738 16.4599 5.65237 16.4599 5.70118 16.5087C5.75 16.5575 5.75 16.6361 5.75 16.7932V17.1949C5.75 17.5105 5.54937 17.7991 5.23176 17.9402L5.19441 17.9569C5.00169 18.0429 4.81445 18.1266 4.59119 18.1266H3.15881C2.93555 18.1266 2.74831 18.0429 2.5556 17.9569L2.51824 17.9402C2.20063 17.7991 2 17.5105 2 17.1949V16.4542C2 16.2412 2 16.1347 2.05873 16.0848C2.11746 16.0349 2.23608 16.0542 2.47331 16.093C2.49688 16.0968 2.52065 16.1003 2.54462 16.1035L5.14198 16.4473C5.20542 16.4557 5.26935 16.4599 5.33333 16.4599H5.41667Z" fill="#13B0E4"/>
<path d="M15.25 16.4597C15.0929 16.4597 15.0143 16.4597 14.9655 16.5085C14.9167 16.5574 14.9167 16.6359 14.9167 16.7931V17.1947C14.9167 17.5103 15.1173 17.7989 15.4349 17.9401L15.4723 17.9567C15.665 18.0428 15.8522 18.1264 16.0755 18.1264H17.5079C17.7311 18.1264 17.9184 18.0428 18.1111 17.9567L18.1484 17.9401C18.466 17.7989 18.6667 17.5103 18.6667 17.1947V16.4541C18.6667 16.241 18.6667 16.1345 18.6079 16.0846C18.5492 16.0347 18.4306 16.0541 18.1934 16.0928C18.1698 16.0967 18.146 16.1002 18.122 16.1034L15.5247 16.4471C15.4612 16.4555 15.3973 16.4597 15.3333 16.4597H15.25Z" fill="#13B0E4"/>
<path d="M5.98308 6.87505C5.66338 6.87505 5.50353 6.87505 5.42876 6.77016C5.354 6.66526 5.40614 6.51416 5.51044 6.21194L5.91486 5.04004C6.09869 4.50734 6.21625 4.17043 6.33422 3.92549C6.48411 3.61427 6.64717 3.50707 6.98946 3.46932C7.26733 3.43868 7.63541 3.4375 8.21674 3.4375H12.4499C13.0313 3.4375 13.3993 3.43868 13.6772 3.46932C14.0195 3.50707 14.1826 3.61427 14.3324 3.92549C14.4504 4.17043 14.568 4.50734 14.7518 5.04004L15.1562 6.21194C15.2605 6.51416 15.3127 6.66526 15.2379 6.77016C15.1631 6.87505 15.0033 6.87505 14.6836 6.87505H5.98308Z" fill="#13B0E4"/>
<path d="M3.11298 9.6495C2.80424 9.49514 2.42882 9.62028 2.27445 9.92901C2.12008 10.2377 2.24523 10.6132 2.55396 10.7675L3.80396 11.3925C4.1127 11.5469 4.48812 11.4218 4.64249 11.113C4.79686 10.8043 4.67172 10.4289 4.36298 10.2745L3.11298 9.6495Z" fill="#13B0E4"/>
<path d="M18.113 10.7675C18.4217 10.6132 18.5469 10.2377 18.3925 9.92901C18.2381 9.62028 17.8627 9.49514 17.554 9.6495L16.304 10.2745C15.9952 10.4289 15.8701 10.8043 16.0245 11.113C16.1788 11.4218 16.5542 11.5469 16.863 11.3925L18.113 10.7675Z" fill="#13B0E4"/>
<path d="M11.141 12.5001H9.52619C8.70643 12.5001 8.29656 12.5001 7.97912 12.728C7.73274 12.9049 7.58589 13.1876 7.39014 13.6827C7.30416 13.9002 7.26116 14.009 7.31063 14.0878C7.36009 14.1667 7.47251 14.1667 7.69735 14.1667H12.9699C13.1947 14.1667 13.3071 14.1667 13.3566 14.0878C13.4061 14.009 13.3631 13.9002 13.2771 13.6827C13.0813 13.1876 12.9345 12.9049 12.6881 12.728C12.3707 12.5001 11.9608 12.5001 11.141 12.5001Z" fill="#13B0E4"/>
<path d="M17.2861 7.3295C17.3965 7.44384 17.5152 7.56672 17.6373 7.69647L18.2062 7.41201C18.6178 7.20618 18.7847 6.70562 18.5789 6.29397C18.373 5.88232 17.8725 5.71547 17.4608 5.92129L16.8641 6.21967L17.1666 7.09632L17.1738 7.11719C17.2014 7.19811 17.2246 7.26585 17.2861 7.3295Z" fill="#13B0E4"/>
<path d="M2.46084 7.41201L3.02951 7.69634C3.15143 7.56671 3.27004 7.44394 3.38045 7.32967C3.44322 7.2647 3.46269 7.20694 3.48927 7.12808L3.50006 7.09632L3.80264 6.21952L3.20619 5.92129C2.79455 5.71547 2.29398 5.88232 2.08816 6.29397C1.88234 6.70562 2.04919 7.20618 2.46084 7.41201Z" fill="#13B0E4"/>
</svg>
