<svg width="22" height="23" viewBox="0 0 22 23" fill="none" xmlns="http://www.w3.org/2000/svg">
<path fill-rule="evenodd" clip-rule="evenodd" d="M8.54891 0.75H8.45109C6.84883 0.749988 5.57947 0.749978 4.57525 0.86868C3.54428 0.990545 2.69558 1.24638 1.98663 1.8282C1.74612 2.02558 1.52558 2.24612 1.3282 2.48663C0.746384 3.19558 0.490545 4.04428 0.368681 5.07525C0.249979 6.07947 0.249988 7.34883 0.25 8.95109V9.04891C0.249988 10.6512 0.249978 11.9205 0.36868 12.9247C0.490545 13.9557 0.746383 14.8044 1.3282 15.5134C1.52558 15.7539 1.74612 15.9744 1.98663 16.1718C2.6585 16.7232 3.45589 16.9818 4.41544 17.1111C5.1943 17.2161 6.13184 17.2415 7.26071 17.2479C7.27373 17.8699 7.30259 18.4162 7.36652 18.8918C7.48754 19.7919 7.74643 20.5497 8.34835 21.1516C8.95027 21.7536 9.70814 22.0125 10.6082 22.1335C11.4752 22.25 12.5775 22.25 13.9451 22.25H15.0549C16.4225 22.25 17.5248 22.25 18.3918 22.1335C19.2919 22.0125 20.0497 21.7536 20.6517 21.1516C21.2536 20.5497 21.5125 19.7919 21.6335 18.8918C21.75 18.0248 21.75 16.9225 21.75 15.5549V14.4451C21.75 13.0775 21.75 11.9752 21.6335 11.1083C21.5125 10.2081 21.2536 9.45027 20.6517 8.84835C20.0497 8.24644 19.2919 7.98754 18.3918 7.86652C17.9162 7.80259 17.3699 7.77373 16.7479 7.76071C16.7415 6.63184 16.7161 5.6943 16.6111 4.91544C16.4818 3.95589 16.2232 3.1585 15.6718 2.48663C15.4744 2.24612 15.2539 2.02558 15.0134 1.8282C14.3044 1.24638 13.4557 0.990545 12.4248 0.868681C11.4205 0.749979 10.1512 0.749988 8.54891 0.75ZM15.2477 7.75001C15.2411 6.63983 15.2161 5.79484 15.1246 5.11576C15.0157 4.30799 14.8216 3.81514 14.5123 3.43822C14.3772 3.27366 14.2263 3.12277 14.0618 2.98772C13.6644 2.66158 13.138 2.46344 12.2487 2.35831C11.3428 2.25123 10.1621 2.25 8.5 2.25C6.83789 2.25 5.65724 2.25123 4.75133 2.35831C3.86197 2.46344 3.33563 2.66158 2.93822 2.98772C2.77366 3.12277 2.62277 3.27366 2.48772 3.43822C2.16158 3.83563 1.96344 4.36197 1.85831 5.25133C1.75123 6.15724 1.75 7.33789 1.75 9C1.75 10.6621 1.75123 11.8428 1.85831 12.7487C1.96343 13.638 2.16158 14.1644 2.48772 14.5618C2.62277 14.7263 2.77366 14.8772 2.93822 15.0123C3.31513 15.3216 3.80799 15.5157 4.61576 15.6246C5.29484 15.7161 6.13983 15.7411 7.25001 15.7477C7.25 15.684 7.25 15.6197 7.25 15.5549V14.4451C7.24998 13.0775 7.24996 11.9752 7.36652 11.1082C7.48754 10.2081 7.74644 9.45027 8.34835 8.84835C8.95027 8.24643 9.70814 7.98754 10.6083 7.86652C11.4752 7.74996 12.5775 7.74998 13.9451 7.75H15.0549C15.1197 7.75 15.184 7.75 15.2477 7.75001ZM9.40901 9.90901C9.68577 9.63225 10.0743 9.4518 10.8081 9.35315C11.5635 9.25159 12.5646 9.25 14 9.25H15C16.4354 9.25 17.4365 9.25159 18.1919 9.35315C18.9257 9.4518 19.3142 9.63225 19.591 9.90901C19.8678 10.1858 20.0482 10.5743 20.1469 11.3081C20.2484 12.0635 20.25 13.0646 20.25 14.5V15.5C20.25 16.9354 20.2484 17.9365 20.1469 18.6919C20.0482 19.4257 19.8678 19.8142 19.591 20.091C19.3142 20.3678 18.9257 20.5482 18.1919 20.6469C17.4365 20.7484 16.4354 20.75 15 20.75H14C12.5646 20.75 11.5635 20.7484 10.8081 20.6469C10.0743 20.5482 9.68577 20.3678 9.40901 20.091C9.13225 19.8142 8.9518 19.4257 8.85315 18.6919C8.75159 17.9365 8.75 16.9354 8.75 15.5V14.5C8.75 13.0646 8.75159 12.0635 8.85315 11.3081C8.9518 10.5743 9.13225 10.1858 9.40901 9.90901Z" fill="#8193B3"/>
</svg>
