<svg width="24" height="24" viewBox="0 0 24 24" fill="none" xmlns="http://www.w3.org/2000/svg">
<path d="M10.9168 12.2709C10.4681 12.2709 10.1043 12.6347 10.1043 13.0834C10.1043 13.5321 10.4681 13.8959 10.9168 13.8959H16.3335C16.7822 13.8959 17.146 13.5321 17.146 13.0834C17.146 12.6347 16.7822 12.2709 16.3335 12.2709H10.9168Z" fill="#161616"/>
<path d="M7.66683 12.2709C7.2181 12.2709 6.85433 12.6347 6.85433 13.0834C6.85433 13.5321 7.2181 13.8959 7.66683 13.8959H7.67656C8.12529 13.8959 8.48906 13.5321 8.48906 13.0834C8.48906 12.6347 8.12529 12.2709 7.67656 12.2709H7.66683Z" fill="#161616"/>
<path d="M7.66683 16.6042C7.2181 16.6042 6.85433 16.968 6.85433 17.4167C6.85433 17.8655 7.2181 18.2292 7.66683 18.2292H13.0835C13.5322 18.2292 13.896 17.8655 13.896 17.4167C13.896 16.968 13.5322 16.6042 13.0835 16.6042H7.66683Z" fill="#161616"/>
<path d="M16.3238 16.6042C15.875 16.6042 15.5113 16.968 15.5113 17.4167C15.5113 17.8655 15.875 18.2292 16.3238 18.2292H16.3335C16.7822 18.2292 17.146 17.8655 17.146 17.4167C17.146 16.968 16.7822 16.6042 16.3335 16.6042H16.3238Z" fill="#161616"/>
<path fill-rule="evenodd" clip-rule="evenodd" d="M6.31266 1.16675C6.31266 0.718017 5.94889 0.354248 5.50016 0.354248C5.05143 0.354248 4.68766 0.718017 4.68766 1.16675V1.85444C3.81584 2.10154 3.08054 2.50315 2.4685 3.16481C1.62577 4.07587 1.25117 5.227 1.07177 6.66955C0.895975 8.08308 0.895984 9.89459 0.895996 12.206V12.8775C0.895984 15.1889 0.895975 17.0004 1.07177 18.4139C1.25117 19.8565 1.62577 21.0076 2.4685 21.9187C3.31957 22.8388 4.40899 23.256 5.77239 23.4542C7.09192 23.646 8.77784 23.6459 10.9052 23.6459H13.0951C15.2225 23.6459 16.9084 23.646 18.2279 23.4542C19.5913 23.256 20.6808 22.8388 21.5318 21.9187C22.3746 21.0076 22.7492 19.8565 22.9286 18.4139C23.1044 17.0004 23.1043 15.1889 23.1043 12.8775V12.206C23.1043 9.8946 23.1044 8.08309 22.9286 6.66955C22.7492 5.227 22.3746 4.07587 21.5318 3.16481C20.9198 2.50315 20.1845 2.10154 19.3127 1.85444V1.16675C19.3127 0.718017 18.9489 0.354248 18.5002 0.354248C18.0514 0.354248 17.6877 0.718017 17.6877 1.16675V1.56313C16.4569 1.43755 14.9425 1.43756 13.0951 1.43758H10.9052C9.05786 1.43756 7.5434 1.43755 6.31266 1.56313V1.16675ZM3.66141 4.26825C3.94236 3.96452 4.2774 3.73198 4.71865 3.55641C4.81557 3.89672 5.12876 4.14591 5.50016 4.14591C5.94889 4.14591 6.31266 3.78215 6.31266 3.33341V3.19755C7.46209 3.06427 8.94773 3.06258 10.971 3.06258H13.0293C15.0526 3.06258 16.5382 3.06427 17.6877 3.19755V3.33341C17.6877 3.78215 18.0514 4.14591 18.5002 4.14591C18.8716 4.14591 19.1848 3.89672 19.2817 3.55642C19.7229 3.73199 20.058 3.96452 20.3389 4.26825C20.8505 4.82134 21.1538 5.57955 21.314 6.85425H2.68632C2.84656 5.57955 3.14981 4.82134 3.66141 4.26825ZM2.56316 8.47925C2.52159 9.51588 2.521 10.7551 2.521 12.2636V12.8199C2.521 15.2014 2.52248 16.9118 2.68434 18.2134C2.84406 19.4977 3.14769 20.2599 3.66141 20.8152C4.16681 21.3616 4.84722 21.6776 6.00612 21.8461C7.19532 22.0189 8.76303 22.0209 10.971 22.0209H13.0293C15.2373 22.0209 16.805 22.0189 17.9942 21.8461C19.1531 21.6776 19.8335 21.3616 20.3389 20.8152C20.8526 20.2599 21.1563 19.4977 21.316 18.2134C21.4778 16.9118 21.4793 15.2014 21.4793 12.8199V12.2636C21.4793 10.7551 21.4787 9.51588 21.4372 8.47925H2.56316Z" fill="#161616"/>
</svg>
