<svg width="221" height="110" viewBox="0 0 221 110" fill="none" xmlns="http://www.w3.org/2000/svg">
<path d="M70.6928 50.4871C70.6764 50.8162 70.5832 51.137 70.4206 51.4243C70.258 51.7116 70.0305 51.9575 69.7559 52.1428C69.6256 52.2105 69.5263 52.2721 69.4704 52.7583C69.3526 53.6754 69.2533 54.6048 69.1478 55.4972L69.0733 56.1127L68.9244 57.5529C68.85 58.23 68.7817 58.9009 68.7011 59.5779C68.6642 60.0894 68.4976 60.5833 68.2166 61.0138C67.9356 61.4442 67.5495 61.7972 67.094 62.0398C66.9744 62.1267 66.8802 62.2435 66.821 62.3784L66.7652 62.5999C66.7303 62.7783 66.648 62.9441 66.527 63.0804C66.4059 63.2168 66.2504 63.3186 66.0765 63.3754C65.9758 63.4052 65.8712 63.4198 65.7662 63.4185C65.5026 63.4145 65.2511 63.3085 65.0651 63.1231L64.2275 62.3168C64.1138 62.2071 64.0272 62.0728 63.9745 61.9244C63.9217 61.776 63.9043 61.6175 63.9234 61.4613L63.9731 61.1474C63.8601 61.2015 63.7382 61.2349 63.6132 61.2459H63.5325C63.2704 61.2464 63.0186 61.1447 62.8314 60.9627L61.3423 59.541C61.23 59.4343 61.1446 59.303 61.0929 59.1576C61.0412 59.0122 61.0246 58.8568 61.0444 58.7039H60.8955C60.6317 58.7041 60.3781 58.6026 60.1882 58.4208L58.879 57.1529C58.7187 56.9941 58.6164 56.7868 58.5883 56.5638C58.5602 56.3408 58.6079 56.1149 58.7239 55.9219V55.885C58.8018 55.7336 58.8642 55.5748 58.91 55.411C59.3295 53.6965 59.4054 51.9168 59.1334 50.1732C59.1354 50.0787 59.1014 49.9869 59.0381 49.9161C58.9749 49.8454 58.887 49.8009 58.7921 49.7916C58.4687 49.7164 58.1378 49.6772 57.8056 49.6747H49.6216H29.3446H29.2143H29.146C27.5142 49.6747 25.8886 49.6747 24.2567 49.6747C23.9648 49.7005 23.6784 49.7689 23.4067 49.8778C23.3136 49.8778 23.3136 49.9332 23.3074 49.9578C22.9577 51.8349 23.0383 53.766 23.5432 55.608C23.6802 56.0672 23.9916 56.4556 24.4118 56.6913L25.0323 57.0667C25.0954 57.1 25.1538 57.1414 25.206 57.1898L25.2743 57.2514C25.3056 57.2626 25.3333 57.2817 25.355 57.3067L25.4046 57.3498L25.6714 57.5529C26.5577 58.2458 27.4883 58.8811 28.4573 59.4548L28.6559 59.5779L29.0778 59.7687C29.1357 59.8052 29.1958 59.838 29.2577 59.8672L29.5928 60.058C29.8968 60.218 30.2132 60.3903 30.5731 60.5565L30.6724 60.6058L31.237 60.8766C31.5845 61.0366 31.994 61.2151 32.4221 61.3874C35.3683 62.6235 38.5304 63.2739 41.7292 63.3016C44.4938 63.2956 47.2317 62.7649 49.7953 61.7383H49.8387H49.907L50.0063 61.6952C50.1247 61.6485 50.2512 61.6255 50.3786 61.6275C50.6447 61.6208 50.9028 61.7185 51.0968 61.8994C51.2908 62.0803 51.405 62.3298 51.4147 62.5938V64.2617C51.4154 64.4097 51.3859 64.5563 51.3279 64.6926C51.3922 64.8295 51.426 64.9785 51.4271 65.1296V66.3913C51.4302 66.4159 51.4302 66.4407 51.4271 66.4652C51.4302 66.4959 51.4302 66.5268 51.4271 66.5575V67.3084L51.4768 71.0937V71.1737L51.5636 78.2887C51.5635 78.4511 51.5253 78.6113 51.452 78.7565C51.1587 79.3223 50.8073 79.8565 50.4034 80.3506H50.5833C50.7283 80.3519 50.8716 80.3811 51.0052 80.4368C51.1796 80.517 51.3275 80.6445 51.4318 80.8046C51.5361 80.9647 51.5926 81.1509 51.5947 81.3415L51.6443 85.2068C51.6447 85.3477 51.6156 85.4871 51.559 85.6163C51.5024 85.7456 51.4195 85.8618 51.3155 85.9577C50.7632 86.4562 50.0311 87.1148 49.2679 87.761C47.3081 89.4076 44.8249 90.3144 42.2566 90.3215C41.8036 90.3215 41.3569 90.3215 40.9102 90.3215C39.7932 90.3442 38.6778 90.2263 37.5906 89.9706C35.7556 89.5212 34.0637 88.6217 32.6703 87.3548C31.6403 86.407 30.5979 85.4653 29.568 84.5236C27.7872 82.9049 25.9506 81.2369 24.1636 79.5628L18.2692 73.4694L18.2195 73.4202C17.3455 72.4184 16.7099 71.2344 16.3598 69.9559C16.0096 68.6774 15.9539 67.3371 16.1968 66.0344C16.2323 65.5934 16.203 65.1498 16.1099 64.7172C16.1099 64.5572 16.0665 64.3972 16.0417 64.2433C15.9922 63.8769 15.9239 63.5133 15.8369 63.1539C15.8059 62.9815 15.7687 62.8092 15.7314 62.643C15.7177 62.4822 15.6633 62.3274 15.5733 62.1929C15.4833 62.0584 15.3606 61.9486 15.2165 61.8737C14.7995 61.6619 14.4459 61.3452 14.1911 60.9552C13.9362 60.5653 13.7892 60.1158 13.7646 59.6517C13.6467 58.6054 13.5288 57.5591 13.4047 56.5128C13.262 55.2818 13.1131 54.0016 12.9766 52.7398C12.9331 52.3521 12.8463 52.2351 12.6539 52.1243C12.3791 51.9199 12.1531 51.6578 11.9922 51.3566C11.8313 51.0555 11.7395 50.7229 11.7232 50.3825C11.7046 48.0314 11.7046 45.6925 11.7046 43.7229C11.7046 42.2273 12.6911 42.0611 13.1131 42.0611C13.2652 42.0588 13.4171 42.0732 13.566 42.1042C13.9421 39.8091 14.4938 37.5458 15.2165 35.3339C15.9003 33.3135 16.7967 31.3702 17.8907 29.536C18.1203 29.0374 19.293 26.7417 22.5752 24.2982C22.6223 24.2508 22.6768 24.2113 22.7366 24.1812C24.3193 23.033 26.0308 22.0705 27.8368 21.3131C30.4245 19.9698 33.1932 19.0018 36.0581 18.4387C37.4976 18.2048 38.9619 18.1002 40.4014 18.0017H40.7116C41.3321 17.9587 41.9215 17.9402 42.5234 17.9402C44.906 17.9466 47.2783 18.2506 49.5843 18.845C50.9301 19.1847 52.2473 19.6272 53.5243 20.1682C53.5679 20.1815 53.6096 20.2001 53.6484 20.2236L53.909 20.3406C54.0766 20.4083 54.2317 20.4821 54.393 20.5622L54.5109 20.6176L54.5853 20.6483C56.9743 21.7706 59.1723 23.2553 61.1003 25.0491C61.5433 25.4534 61.9579 25.8873 62.3412 26.3477L62.4653 26.4893L62.5584 26.6001L62.6949 26.7786C62.7252 26.8151 62.7522 26.8543 62.7756 26.8955L62.9121 27.074L62.9679 27.154C63.8182 28.3384 64.5972 29.5715 65.3009 30.847C66.3197 32.6609 67.1175 34.5886 67.6773 36.5894L67.7393 36.7987L67.9627 37.7712C68.2729 39.1745 68.5832 40.6209 68.8934 42.0796C69.0302 42.0516 69.1694 42.0371 69.3091 42.0365C69.5075 42.0332 69.7042 42.0722 69.886 42.1509C70.0678 42.2296 70.2304 42.3462 70.3628 42.4927C70.4952 42.6392 70.5943 42.8123 70.6534 43.0001C70.7124 43.1879 70.7301 43.3862 70.7052 43.5814C70.7176 45.6125 70.73 48.0129 70.6928 50.4871Z" fill="#121212"/>
<path d="M56.1183 58.2733C55.6546 58.2745 55.1962 58.3709 54.7718 58.5564C54.1638 58.8216 53.6504 59.2623 53.2985 59.8211C52.9466 60.3799 52.7724 61.0309 52.7987 61.6892L53.0655 69.1797C53.0853 69.7699 53.3076 70.3357 53.6958 70.7834C54.0839 71.2312 54.6146 71.534 55.2 71.6416C54.7248 71.7679 54.2949 72.0238 53.959 72.3802C53.4901 72.8802 53.2401 73.5442 53.2641 74.2267L53.3075 75.4577C53.3281 76.0794 53.5724 76.6733 53.9962 77.1318C53.6003 77.6162 53.3933 78.2257 53.413 78.849L53.5805 83.4774C53.5964 84.1382 53.8127 84.7788 54.2012 85.3157C54.5897 85.8526 55.1324 86.2609 55.7584 86.4872C56.1206 86.6166 56.5026 86.6832 56.8876 86.6841C57.3568 86.6839 57.8205 86.5851 58.2483 86.3941C58.6761 86.2031 59.0582 85.9244 59.3695 85.5763L64.9538 79.3414L71.0964 79.4214C71.7578 79.4244 72.405 79.2314 72.955 78.8671C73.5051 78.5028 73.9329 77.9838 74.1835 77.3766C74.4342 76.7695 74.4964 76.102 74.362 75.4596C74.2276 74.8172 73.9029 74.2293 73.4294 73.7712L58.4388 59.2149C57.8188 58.6128 56.986 58.2748 56.1183 58.2733ZM64.1223 74.1344C63.6539 74.135 63.1908 74.2334 62.7632 74.4232C62.3356 74.613 61.953 74.89 61.6404 75.2361L58.6498 78.5782C58.6065 77.9908 58.3637 77.4354 57.9611 77.0025C58.3536 76.5194 58.5564 75.9115 58.5319 75.2915L58.4885 74.0605C58.4676 73.4706 58.2449 72.9054 57.8569 72.4579C57.4689 72.0104 56.9389 71.7073 56.354 71.5985C56.9267 71.4474 57.4309 71.1084 57.7846 70.6368C58.1384 70.1652 58.3208 69.5887 58.3023 69.0012L58.203 66.2684L66.356 74.159L64.1223 74.1344Z" fill="#121212"/>
<path d="M23.1521 25.0426L23.1211 25.0733C19.7581 27.5353 18.7344 29.8988 18.6909 29.9972L21.5327 27.6645C21.756 27.3753 21.9732 27.0921 22.1904 26.7967L22.8729 25.9166L23.1273 25.5596C23.1636 25.4948 23.2051 25.4331 23.2514 25.3749L23.3693 25.1903L23.1521 25.0426Z" fill="#099FCF"/>
<path d="M69.6069 43.5873C69.6069 43.0826 69.427 42.9719 68.9306 43.0826C67.9875 43.2796 68.0061 43.255 67.8138 42.2948C67.4601 40.5468 67.063 38.8173 66.6721 37.0755C66.6721 37.0262 66.6721 36.977 66.6287 36.9278C66.0885 34.9836 65.3135 33.1112 64.3205 31.3515C63.6371 30.1124 62.8808 28.9143 62.0558 27.7632C61.9814 27.6585 61.9193 27.5662 61.8635 27.4985L61.789 27.3939L61.6773 27.2462C61.6518 27.2086 61.6227 27.1736 61.5905 27.1415C61.5611 27.0996 61.5278 27.0605 61.4912 27.0246C61.1318 26.5878 60.742 26.1764 60.3247 25.7936C58.4701 24.0663 56.3559 22.6356 54.0579 21.5529L53.8966 21.4729L53.4375 21.2636L53.1769 21.1467L53.0962 21.1098C51.8478 20.5814 50.5595 20.1513 49.2431 19.8234C46.4548 19.0788 43.5617 18.796 40.6806 18.9863C39.1666 19.091 37.6403 19.1833 36.1449 19.4356C33.3717 19.9864 30.6914 20.9251 28.1843 22.2238C26.4007 22.9657 24.7117 23.914 23.1523 25.0489L23.3446 25.2089C23.3074 25.2704 23.264 25.3258 23.2205 25.3874C23.1742 25.4455 23.1327 25.5073 23.0964 25.572L22.8731 25.9167L22.1905 26.803C21.9734 27.0984 21.7562 27.3816 21.5328 27.6708L24.114 25.5536C23.599 26.2121 23.084 26.8769 22.5566 27.5293C20.6177 29.8696 19.2142 32.5996 18.4429 35.5306C18.3809 35.7768 18.356 36.0292 18.3126 36.2815L18.5298 36.38C18.8462 35.7091 19.1502 35.0382 19.4667 34.3673C20.1547 32.694 21.0221 31.0989 22.054 29.6096C22.3581 29.2096 22.7117 28.8526 23.0406 28.4771C23.0846 28.5459 23.1144 28.6227 23.1282 28.703C23.142 28.7833 23.1397 28.8655 23.1213 28.9449C22.3271 32.6378 21.5329 36.3307 20.7386 40.0237C20.4222 41.4639 18.2568 43.2365 16.7552 43.3104H16.3457C15.7252 43.2796 15.5639 43.1627 15.5453 42.5533C15.5055 41.9379 15.518 41.3202 15.5825 40.7069C15.9895 37.2572 17.1865 33.9455 19.082 31.0252C19.8514 29.8804 20.689 28.7726 21.5328 27.6708L18.6911 30.0035C17.6071 31.7911 16.7209 33.6896 16.0479 35.666C15.3142 37.9247 14.7643 40.2382 14.4036 42.5841C14.292 43.2304 14.1865 43.2981 13.5288 43.1503C12.8711 43.0026 12.6539 43.058 12.6477 43.7658C12.6477 45.9754 12.6477 48.1912 12.6477 50.4069C12.6634 50.5885 12.716 50.765 12.8024 50.9258C12.8888 51.0866 13.0071 51.2283 13.1503 51.3425C13.3744 51.4932 13.5594 51.6945 13.6899 51.9299C13.8204 52.1653 13.8928 52.428 13.9011 52.6965C14.1492 55.0046 14.4347 57.3004 14.6891 59.6085C14.7091 59.8997 14.8048 60.1809 14.9668 60.4246C15.1288 60.6684 15.3516 60.8664 15.6136 60.9995C15.898 61.1426 16.1429 61.3526 16.3268 61.6111C16.5106 61.8697 16.6279 62.1689 16.6684 62.4828C16.78 63.0367 16.9165 63.5907 16.991 64.1508C17.1365 64.8342 17.1846 65.5345 17.1337 66.2311C16.916 67.3895 16.9659 68.5817 17.2797 69.7181C17.5935 70.8546 18.163 71.9056 18.9455 72.7922L24.7841 78.8486C27.5949 81.4706 30.4614 84.031 33.2908 86.6283C34.5539 87.7863 36.0934 88.6061 37.7644 89.0103C39.2032 89.3131 40.6777 89.4146 42.1449 89.3119C44.4835 89.3095 46.7455 88.4852 48.5295 86.9853C49.2183 86.4068 49.8884 85.8098 50.5523 85.2066L50.5088 81.3413L47.0156 84.2403C46.6681 84.5295 46.3021 84.788 45.9422 85.065L45.7684 85.0035C45.7709 84.6772 45.802 84.3518 45.8615 84.031C46.1254 83.0555 46.7217 82.2007 47.5492 81.6121C48.784 80.7722 49.7935 79.6462 50.4902 78.3316L50.4096 71.2166V71.1796L50.3661 67.3513V66.6004L50.2545 66.6558C48.2255 67.6529 45.483 68.6069 44.9494 68.5023C45.3155 68.1268 48.5109 66.902 50.2482 66.4588H50.3661V65.2279H50.211C49.0321 65.4679 47.847 65.6587 46.6681 65.8926C46.6681 65.8126 46.6309 65.7264 46.6061 65.6402C47.3196 65.394 48.027 65.1232 48.7405 64.8955C49.2245 64.7355 49.7084 64.5754 50.1862 64.3908L50.3537 64.3293V62.6613L50.1428 62.7474C43.1439 65.5356 36.6848 64.3046 31.994 62.3966C31.5721 62.2243 31.1626 62.0458 30.753 61.8673L30.0643 61.5349C29.7045 61.3626 29.3694 61.1841 29.0405 61.0118L28.7241 60.8394L28.4201 60.6671L28.1967 60.5379L27.9175 60.3778C26.894 59.7802 25.9115 59.1161 24.9765 58.3898L24.7035 58.1805L24.6476 58.1313L24.598 58.0882C24.573 58.0653 24.546 58.0447 24.5173 58.0267H24.4863L23.8658 57.6328C23.2631 57.2599 22.821 56.6789 22.6249 56.0017C22.0363 53.9912 21.9091 51.8755 22.2526 49.8099C22.2818 49.6062 22.3692 49.4151 22.5044 49.2591C22.6397 49.1031 22.8171 48.9889 23.0158 48.9298C23.391 48.7777 23.7897 48.6903 24.1947 48.6713C25.8327 48.6713 27.4583 48.6713 29.0902 48.6713H29.2577H49.5719H57.7622C58.18 48.6753 58.5961 48.7249 59.0031 48.819C59.2994 48.8746 59.5692 49.0251 59.7709 49.2475C59.9727 49.4699 60.0953 49.7518 60.1199 50.05C60.4114 51.9213 60.325 53.8315 59.8656 55.6693C59.7989 55.9079 59.7074 56.1389 59.5925 56.3587L59.5429 56.4449L60.8583 57.7128C60.8733 57.6891 60.8899 57.6665 60.9079 57.6451C61.4577 56.8416 61.7279 55.882 61.6773 54.9123C61.6773 53.5459 61.7704 52.1672 61.7828 50.7947C61.7774 50.2028 61.7255 49.6122 61.6277 49.0282C61.5801 48.6443 61.4037 48.2874 61.1268 48.015C60.8499 47.7426 60.4887 47.5705 60.1013 47.5265C59.4312 47.4218 58.7549 47.3911 57.9731 47.3172C58.0858 47.2288 58.2062 47.1505 58.333 47.0833C59.7415 46.6648 61.1499 46.2462 62.5584 45.8523C63.3278 45.6369 63.5139 45.7415 63.6814 46.5478C63.9789 48.3279 64.0269 50.1402 63.8242 51.9333C63.7187 53.2997 63.4705 54.6538 63.2533 56.014C63.0871 57.0242 62.6596 57.9743 62.0124 58.7714L61.9689 58.8268L63.4333 60.2424L63.4705 60.1993C63.7869 59.8485 64.091 59.4854 64.4198 59.1284C64.6308 58.8945 64.8355 58.6483 65.0403 58.396L65.245 58.4452C65.1706 59.0607 65.1209 59.7193 65.0155 60.3532C64.9596 60.7533 64.8976 61.1472 64.8355 61.5472V61.615L65.6856 62.4028V62.3658C65.6856 62.2858 65.729 62.2058 65.7476 62.1197C65.8791 61.7149 66.152 61.3701 66.517 61.1472C66.831 60.9828 67.0966 60.7404 67.288 60.4437C67.4794 60.1471 67.59 59.8063 67.609 59.4546C67.7393 58.2975 67.851 57.1465 67.9813 55.9894C68.1116 54.8323 68.2357 53.7429 68.3784 52.6165C68.3821 52.3475 68.4546 52.0838 68.5892 51.8501C68.7238 51.6165 68.916 51.4207 69.1478 51.2809C69.2744 51.1845 69.3795 51.063 69.4564 50.9243C69.5333 50.7855 69.5803 50.6324 69.5945 50.4746C69.6318 48.1789 69.6256 45.8831 69.6069 43.5873ZM29.0778 22.6177C29.1219 22.587 29.1699 22.5622 29.2205 22.5438L29.5679 22.4577C29.3974 22.7704 29.211 23.0745 29.0095 23.3686C28.5938 23.9348 28.1223 24.458 27.7189 25.0304C26.9762 26.0688 26.4747 27.2576 26.2505 28.5113C26.0262 29.765 26.0849 31.0523 26.4222 32.2808C26.8069 33.8196 27.266 35.3583 27.6631 36.8785C27.7438 37.1617 27.8058 37.4509 27.9175 37.8572C27.75 37.7525 27.6817 37.7279 27.6631 37.691C26.509 34.9459 25.448 32.1516 25.5163 29.1357C25.5399 27.8457 25.8758 26.5802 26.4956 25.4458C27.1154 24.3115 28.001 23.3415 29.0778 22.6177ZM20.0437 42.4302C20.2572 42.7671 20.4499 43.1165 20.6208 43.4766C20.6477 43.5605 20.6539 43.6496 20.6388 43.7364C20.6237 43.8232 20.5877 43.905 20.5339 43.9751C20.447 44.049 20.1802 43.9751 20.0437 43.9197C19.7708 43.733 19.5117 43.5273 19.2681 43.3042L20.0437 42.4302ZM35.7913 84.6834C33.4149 82.7139 31.0323 80.7381 28.6745 78.7501C26.993 77.3345 25.2929 75.9435 23.7107 74.4417C21.2288 72.1644 19.2309 69.5547 18.3498 66.268C17.9031 64.6062 17.6921 62.8829 17.3881 61.1903C17.2702 60.5748 17.1896 59.9101 17.1089 59.27C17.0717 58.9868 17.0655 58.6914 17.0468 58.4021L17.2144 58.3467C17.8348 59.0422 18.4181 59.7193 18.9951 60.4332C20.3769 62.0286 21.8719 63.5239 23.4687 64.9078C25.0881 66.4158 26.7386 67.9175 28.2339 69.5424C29.7009 71.1656 30.632 73.1953 30.902 75.3588C31.0626 76.5784 31.4764 77.7517 32.1172 78.8047C32.7579 79.8577 33.6118 80.7675 34.6248 81.4767C35.5592 82.1414 36.2202 83.1184 36.4862 84.228C36.5345 84.5277 36.5676 84.8297 36.5855 85.1327C36.3107 85.0011 36.0454 84.851 35.7913 84.6834ZM37.5224 68.3853C36.7592 68.5515 33.0364 67.1974 31.5721 66.1942L37.1439 68.1576C37.2745 68.226 37.4009 68.302 37.5224 68.3853ZM22.4201 47.4588C22.1729 47.4674 21.9299 47.5248 21.7053 47.6277C21.4807 47.7306 21.279 47.8769 21.1121 48.0579C20.9451 48.239 20.8162 48.4513 20.7329 48.6824C20.6496 48.9134 20.6136 49.1587 20.627 49.4037C20.5587 50.4685 20.5835 51.5456 20.5835 52.6227C20.5835 53.4351 20.5835 54.2414 20.5835 55.0477C20.578 55.7399 20.7349 56.424 21.0418 57.0457C21.3487 57.6674 21.7972 58.2097 22.3519 58.6298C25.3239 61.0429 28.6619 62.9748 32.2422 64.3539C33.1605 64.6924 34.1036 64.9694 35.0157 65.3079C35.2548 65.3862 35.4617 65.5396 35.6051 65.7449C34.9847 65.6525 34.4076 65.5541 33.8058 65.4679C30.0829 64.914 26.5959 63.843 23.5059 61.6703C22.2515 60.8572 21.1369 59.8493 20.205 58.6852C19.6108 57.9433 19.2025 57.0722 19.0137 56.1433C18.4923 53.6045 18.2633 51.0151 18.3312 48.4251C18.4097 47.6865 18.5299 46.953 18.6911 46.2278C18.6946 46.1455 18.7182 46.0653 18.7597 45.994C18.8013 45.9227 18.8595 45.8625 18.9296 45.8183C18.9997 45.7742 19.0795 45.7475 19.1622 45.7406C19.2449 45.7337 19.3281 45.7467 19.4046 45.7785L24.114 47.1633C24.1512 47.1633 24.1636 47.2495 24.2133 47.3295C23.5866 47.3787 22.9972 47.3972 22.4201 47.4895V47.4588ZM36.4055 46.9294C36.2 46.9585 35.9927 46.9729 35.7851 46.9725C32.6827 46.8248 29.5307 46.7571 26.509 45.8523C24.9827 45.3907 23.4873 44.7998 22.0106 44.1905C21.0613 43.7966 20.7697 43.0888 21.1854 42.2271C21.961 40.7253 22.0789 39.0758 22.4263 37.4756C22.6621 36.3738 22.8793 35.266 23.1337 33.998C23.2538 34.126 23.3599 34.2663 23.4501 34.4166C24.6042 37.1329 25.7624 39.839 26.9247 42.5349C27.1791 43.1503 27.4708 43.7043 27.7127 44.3075C27.8614 44.7007 28.1214 45.0429 28.4616 45.293C28.8017 45.5431 29.2075 45.6903 29.63 45.7169C31.7768 46.0308 33.9237 46.3693 36.0705 46.6955C36.1946 46.6955 36.3125 46.7571 36.4366 46.7817C36.4228 46.8406 36.4124 46.9002 36.4055 46.9602V46.9294ZM53.3382 22.7285C54.3656 23.4456 55.2082 24.3926 55.7979 25.493C56.3876 26.5933 56.7076 27.8159 56.7322 29.0618C56.819 31.5238 56.1117 33.7949 55.2741 36.0538C55.0817 36.6016 54.8459 37.137 54.6536 37.6787L54.4116 37.611C54.5605 37.0693 54.7094 36.5339 54.8521 35.9984C55.2244 34.6443 55.6215 33.2964 55.9442 31.9362C56.2403 30.685 56.2491 29.3837 55.9698 28.1287C55.6906 26.8737 55.1305 25.697 54.3309 24.6857C53.9835 24.2057 53.5864 23.7625 53.2141 23.3009C53.0341 23.0824 52.9201 22.8178 52.8853 22.5377C53.0431 22.5838 53.1951 22.6479 53.3382 22.7285ZM60.1013 44.3013C57.2558 45.6608 54.1792 46.4811 51.03 46.7202L49.8387 46.8063H49.6464H49.5099C48.6909 46.8679 47.8656 46.9171 47.028 46.9725C46.6619 46.9725 46.2834 46.9725 45.9112 46.9725L45.8739 46.7633C46.1904 46.6955 46.4944 46.6032 46.8232 46.5601L49.2121 46.2278H49.2493C49.3299 46.2278 49.4044 46.2278 49.4851 46.1908H49.6154C50.6205 46.037 51.6319 45.8893 52.6433 45.7477C53.0776 45.7147 53.4935 45.56 53.8428 45.3018C54.1921 45.0436 54.4603 44.6924 54.6164 44.289C55.8201 41.5131 57.0982 38.7496 58.302 36.0045C58.5564 35.4198 58.7425 34.8105 58.9659 34.2073H59.1892C59.394 35.149 59.6049 36.0846 59.8097 37.0324C60.0145 37.9803 60.1261 39.002 60.3495 39.9683C60.4976 40.6216 60.7052 41.2603 60.97 41.8763C61.5098 43.1503 61.3423 43.7658 60.1013 44.3013ZM61.9131 44.1474C61.516 43.4827 61.5718 43.2857 62.3164 42.5102L63.0175 43.2981L61.9131 44.1474ZM65.7104 43.3165C64.9949 43.3394 64.2962 43.0982 63.7497 42.6395C63.4166 42.3206 63.0622 42.0245 62.6887 41.7532C62.351 41.5215 62.0661 41.2221 61.8523 40.8744C61.6385 40.5266 61.5007 40.1383 61.4478 39.7344C60.8273 36.7247 60.1572 33.7211 59.5057 30.7052C59.363 30.0097 59.2265 29.3019 59.0962 28.6002L59.2947 28.5141C60.3031 29.6153 61.1396 30.8601 61.7766 32.207C62.3971 33.5672 63.0734 34.9336 63.7187 36.2938C63.7742 36.2351 63.8158 36.1649 63.8404 36.0882C63.8651 36.0116 63.8723 35.9304 63.8614 35.8507C63.834 35.6637 63.7946 35.4787 63.7435 35.2967C62.9944 32.558 61.699 29.9963 59.9338 27.7632C58.6246 26.1014 57.3526 24.4211 56.0497 22.7531C56.0009 22.6913 55.9469 22.6336 55.8883 22.5808C57.1007 23.3758 58.1915 24.3397 59.1272 25.4428L60.2999 26.9938L60.8831 27.7693L62.0868 29.3757C63.646 31.8201 64.9436 34.4192 65.9586 37.1309C66.142 37.7539 66.2891 38.3868 66.3991 39.0266C66.5604 40.0914 66.7093 41.1623 66.7652 42.2394C66.8396 43.1503 66.5915 43.3165 65.7166 43.3165H65.7104Z" fill="#099FCF"/>
<path d="M24.4927 72.1337C25.8953 73.8184 27.4997 75.3272 29.2704 76.6267C29.5836 76.814 29.9067 76.9845 30.2383 77.1376L30.4182 76.9653C30.3395 76.6895 30.24 76.4199 30.1204 76.159C29.6262 75.11 29.0386 74.1069 28.3645 73.1616C26.2735 70.6442 24.0894 68.2377 21.9116 65.7757C21.7894 65.6261 21.6388 65.5018 21.4682 65.4099C21.2976 65.3181 21.1104 65.2605 20.9173 65.2405C20.7243 65.2205 20.5291 65.2385 20.3431 65.2933C20.157 65.3482 19.9837 65.4389 19.833 65.5603C19.9509 65.788 20.0564 66.0342 20.1991 66.2558C21.4682 68.3268 22.9041 70.2925 24.4927 72.1337Z" fill="#099FCF"/>
<path d="M20.4286 69.2965C19.9643 67.5531 19.2296 65.892 18.2507 64.3726C18.3066 65.5912 19.6716 68.6871 20.4286 69.2965Z" fill="#099FCF"/>
<path d="M55.8262 77.0021H55.8883C56.1002 76.995 56.3085 76.9462 56.5013 76.8586C56.694 76.7709 56.8673 76.6462 57.011 76.4916C57.1547 76.337 57.2661 76.1556 57.3386 75.958C57.411 75.7603 57.4432 75.5504 57.4332 75.3403L57.3898 74.1093C57.3825 73.9 57.3337 73.6941 57.2461 73.5035C57.1586 73.3129 57.0341 73.1412 56.8796 72.9983C56.7252 72.8555 56.544 72.7441 56.3462 72.6707C56.1484 72.5974 55.938 72.5633 55.727 72.5706C55.5159 72.5779 55.3084 72.6263 55.1162 72.7131C54.9241 72.8 54.751 72.9235 54.607 73.0767C54.4629 73.2298 54.3507 73.4097 54.2767 73.6059C54.2027 73.802 54.1684 74.0108 54.1758 74.2201L54.2254 75.4511C54.2351 75.8658 54.4081 76.2603 54.7072 76.5501C55.0064 76.84 55.408 77.0022 55.8262 77.0021Z" fill="#F1D840"/>
<path d="M55.1003 59.4796C54.6777 59.6631 54.3204 59.9684 54.0748 60.3558C53.8291 60.7432 53.7065 61.1949 53.7229 61.6523L53.9959 69.1427C54.0107 69.5655 54.1942 69.9652 54.5061 70.2537C54.8179 70.5423 55.2325 70.6961 55.6587 70.6815C56.085 70.6668 56.4878 70.4847 56.7787 70.1754C57.0696 69.866 57.2247 69.4547 57.2099 69.032L56.999 63.788L68.7879 75.1991L64.0723 75.156H64.0413C63.7153 75.1558 63.3929 75.2243 63.0955 75.3569C62.7982 75.4895 62.5326 75.6833 62.3164 75.9254L57.6194 81.114L57.5326 78.7197C57.5165 78.3077 57.3402 77.9179 57.0405 77.6321C56.7408 77.3463 56.3412 77.1868 55.9255 77.1872H55.8697C55.4456 77.2079 55.0469 77.3943 54.7609 77.7057C54.4749 78.0171 54.3248 78.4281 54.3433 78.849L54.5171 83.4651C54.538 84.0595 54.7913 84.6224 55.2232 85.0348C55.6552 85.4472 56.2319 85.6767 56.8314 85.6747C57.1567 85.6757 57.4784 85.6075 57.7748 85.4748C58.0713 85.3421 58.3357 85.1479 58.5501 84.9054L64.4446 78.332L71.0154 78.4181C71.4768 78.4243 71.9294 78.2931 72.3148 78.0416C72.7003 77.79 73.0009 77.4297 73.1779 77.007C73.3549 76.5843 73.4001 76.1187 73.3077 75.6703C73.2154 75.2219 72.9896 74.8112 72.6597 74.4913L57.6194 59.9351C57.2931 59.6188 56.8789 59.4065 56.4301 59.3253C55.9812 59.2442 55.5182 59.2979 55.1003 59.4796Z" fill="#F1D840"/>
<path d="M105.37 50.961V38.8972H92.4252V50.961H86.74V22.1991H92.4252V33.5355H105.37V22.1991H124.123V27.4954H111.088V33.5355H122.903V38.8972H111.088V45.6729H124.197V50.961H105.37Z" fill="white"/>
<path d="M92.1042 38.5784H105.699V50.6423H110.767H123.867V45.9916H110.767V38.5784H122.574V33.8624H110.767V27.1685H123.802V22.526H110.767H105.699V33.8624H92.1042V22.526H87.0698V50.6423H92.1042V38.5784Z" fill="white"/>
<path d="M170.898 50.961L163.763 28.7133L156.594 50.961H150.341L154.452 38.9708L151.165 28.7133L143.996 50.961H125.507V22.1991H131.225V45.6729H139.563L147.613 22.1991H154.683L157.443 30.2498L160.212 22.1991H167.281L177.144 50.961H170.898Z" fill="white"/>
<path d="M156.356 50.6423L157.452 47.2422L160.105 39.0034L163.763 27.6507L171.137 50.6423H176.691L167.051 22.526H160.443L157.443 31.247L154.452 22.526H147.844L139.794 45.9916H130.904V22.526H125.837V50.6423H138.204H143.758L145.257 45.9916L151.165 27.6507L154.799 38.9708L150.794 50.6423H156.356Z" fill="white"/>
<path d="M200.107 50.961V27.4954H184.024V33.5355H195.864V38.8972H184.024V45.6647H197.158V50.961H178.33V22.1991H215.26V27.4954H205.817V50.961H200.107Z" fill="white"/>
<path d="M178.66 22.5179V50.6423H196.836V45.9917H183.694V38.5703H195.543V33.8543H183.694V27.1686H200.429V50.6423H205.496V27.1686H214.93V22.5179H178.66Z" fill="white"/>
<path d="M100.287 70.1138C99.5698 70.1315 98.8725 69.8805 98.3339 69.4109C98.0644 69.178 97.8506 68.8884 97.7081 68.5632C97.5656 68.238 97.4979 67.8855 97.51 67.5311C97.4977 67.1874 97.5656 66.8455 97.7086 66.5322C97.8515 66.2188 98.0655 65.9425 98.3339 65.7248C98.8936 65.2819 99.5962 65.0554 100.311 65.0873C101.014 65.0632 101.702 65.2926 102.248 65.7329C102.522 65.9436 102.74 66.2175 102.884 66.5308C103.028 66.8442 103.092 67.1875 103.072 67.5311C103.067 67.8758 102.992 68.216 102.85 68.5308C102.708 68.8456 102.503 69.1284 102.248 69.3619C101.714 69.8505 101.013 70.1193 100.287 70.1138Z" fill="white"/>
<path d="M100.287 65.4141C99.648 65.38 99.0184 65.5775 98.5154 65.9699C98.2892 66.1608 98.1105 66.4011 97.9933 66.6719C97.8761 66.9427 97.8236 67.2367 97.8398 67.531C97.8301 67.8383 97.8885 68.144 98.011 68.4264C98.1334 68.7089 98.3169 68.9612 98.5484 69.1656C99.0298 69.5791 99.6504 69.7979 100.287 69.7786C100.916 69.7829 101.523 69.549 101.984 69.1248C102.214 68.9178 102.397 68.6653 102.522 68.3838C102.647 68.1022 102.71 67.7977 102.709 67.4901C102.73 67.195 102.677 66.8994 102.557 66.6288C102.436 66.3582 102.251 66.1209 102.017 65.9372C101.521 65.5659 100.908 65.3806 100.287 65.4141Z" fill="white"/>
<path d="M95.0135 70.1138C94.2948 70.1366 93.5941 69.8884 93.0525 69.4191C92.7839 69.1854 92.5708 68.8957 92.4283 68.5707C92.2859 68.2457 92.2177 67.8934 92.2286 67.5392C92.2134 67.1998 92.275 66.8614 92.4091 66.5488C92.5431 66.2362 92.7461 65.9574 93.0031 65.7329C93.5678 65.2876 94.2765 65.061 94.9971 65.0954C95.6947 65.0731 96.3768 65.3025 96.9169 65.7411C97.1912 65.9518 97.4096 66.2257 97.5532 66.539C97.6968 66.8523 97.7612 67.1956 97.7408 67.5392C97.7401 67.8834 97.6664 68.2235 97.5244 68.5375C97.3825 68.8516 97.1755 69.1324 96.9169 69.3619C96.408 69.8529 95.7234 70.1233 95.0135 70.1138Z" fill="white"/>
<path d="M95.0135 65.414C94.3719 65.3787 93.7392 65.5762 93.2338 65.9698C93.0105 66.1628 92.8343 66.4036 92.7187 66.6741C92.6031 66.9445 92.551 67.2375 92.5664 67.5309C92.5551 67.8377 92.612 68.1431 92.733 68.4256C92.854 68.7081 93.0362 68.9607 93.2667 69.1656C93.7507 69.5803 94.3743 69.7991 95.0135 69.7786C95.3271 69.7846 95.6388 69.7283 95.9303 69.6133C96.2218 69.4982 96.4871 69.3265 96.7108 69.1084C96.9351 68.9087 97.1142 68.6641 97.2364 68.3908C97.3585 68.1175 97.4209 67.8217 97.4194 67.5227C97.4398 67.2276 97.3874 66.932 97.2668 66.6614C97.1462 66.3909 96.9611 66.1535 96.7273 65.9698C96.241 65.588 95.6333 65.3909 95.0135 65.414Z" fill="white"/>
<path d="M153.052 87.8009L152.912 87.1879C154.107 86.6403 155.294 86.1008 156.488 85.5532C157.578 84.9585 158.763 84.5522 159.99 84.3517H161.687L161.786 84.9811C161.448 85.0873 160.262 85.6104 158.26 86.534C155.854 87.6538 155.096 87.7845 154.733 87.7845L153.052 87.8009Z" fill="white"/>
<path d="M156.62 85.8556L153.052 87.4903H154.7C155.889 87.2661 157.032 86.8521 158.087 86.2643C160.106 85.3325 161.3 84.8094 161.655 84.695H159.957C158.789 84.9018 157.663 85.2937 156.62 85.8556Z" fill="white"/>
<path d="M198.337 87.5884L198.205 86.9672L201.773 85.3326C202.864 84.7411 204.048 84.335 205.275 84.1311H206.98L207.079 84.7604C206.733 84.8585 205.546 85.3816 203.544 86.3134C201.147 87.4331 200.389 87.5639 200.026 87.5639L198.337 87.5884Z" fill="white"/>
<path d="M201.913 85.6431C200.718 86.1744 199.532 86.722 198.337 87.2778H200.026C201.214 87.0555 202.357 86.6442 203.412 86.0599C205.434 85.1282 206.623 84.6051 206.98 84.4907H205.275C204.099 84.6933 202.964 85.0824 201.913 85.6431Z" fill="white"/>
<path d="M205.497 81.6792C204.586 81.6599 203.681 81.5141 202.811 81.246C201.727 80.907 200.683 80.455 199.696 79.8974C199.036 80.2028 198.338 80.4199 197.62 80.5431C197.167 80.6003 196.244 80.633 194.72 80.6494H191.918C191.506 80.6003 191.243 80.5758 191.094 80.5758C190.361 80.5672 189.649 80.3298 189.059 79.8974C188.444 80.336 187.707 80.5732 186.95 80.5758L184.733 80.6248H184.412H163.813V80.5186C163.479 80.4622 163.149 80.3858 162.824 80.2897C162.186 80.1126 161.598 79.7877 161.111 79.3416C160.631 79.7799 160.072 80.1238 159.463 80.3551C159.162 80.4442 158.857 80.5179 158.548 80.5758C158.2 80.6311 157.847 80.6557 157.494 80.6494C156.637 80.6652 155.79 80.4774 155.022 80.1018C154.608 79.8809 154.225 79.606 153.885 79.2844C153.553 79.7528 153.066 80.0911 152.509 80.2407C152.116 80.3778 151.71 80.4736 151.297 80.5268C151.161 80.5517 151.024 80.5681 150.885 80.5758H150.556H110.331C109.75 80.5715 109.171 80.5141 108.6 80.4042C108.141 80.3159 107.704 80.1381 107.315 79.8811C107.019 80.0713 106.705 80.2302 106.376 80.3551C105.92 80.5246 105.437 80.6077 104.95 80.6003H91.388C90.7578 80.5996 90.1356 80.4608 89.5659 80.1937C88.9961 79.9267 88.4929 79.538 88.0922 79.0556C87.1982 78.054 86.7159 76.756 86.7409 75.4184V70.5144H91.421V75.1405C91.3988 75.4188 91.4411 75.6983 91.5445 75.9579C91.5445 75.9579 91.6352 76.0887 92.2696 76.0887H104.151C104.391 76.1067 104.631 76.0556 104.843 75.9415C104.843 75.9415 105.016 75.8108 105.016 75.1242V70.588H109.713V75.1405C109.713 75.6228 109.82 75.7781 109.861 75.8189C110.495 76.0723 111.184 76.165 111.863 76.0887H149.575C151.322 76.0887 151.635 75.9252 151.676 75.8925C151.718 75.8598 151.907 75.6963 151.907 74.4622C151.845 72.8722 152.399 71.319 153.456 70.1221C153.952 69.5717 154.563 69.1347 155.245 68.8411C155.928 68.5476 156.667 68.4046 157.411 68.4221C158.175 68.4116 158.932 68.5638 159.631 68.8684C160.331 69.1729 160.956 69.6228 161.465 70.1875C162.559 71.3685 163.15 72.9239 163.113 74.5275C163.113 75.5083 163.286 75.7781 163.368 75.8435C163.451 75.9088 163.747 76.0887 165.197 76.0887H186.052C186.282 76.0887 186.571 76.0887 186.653 75.8925C186.731 75.4694 186.764 75.0393 186.752 74.6093V62.3493H191.383V75.1405C191.377 75.2723 191.407 75.4032 191.467 75.5206C191.528 75.638 191.618 75.7379 191.729 75.8108C192.241 76.0547 192.812 76.151 193.377 76.0887H194.761L194.728 75.9579C194.67 75.8516 194.588 75.6391 194.472 75.3449L194.365 75.0752C194.197 74.5674 194.097 74.0397 194.069 73.5059C194.06 72.816 194.203 72.1325 194.487 71.503C194.772 70.8734 195.191 70.313 195.717 69.8606C196.726 68.9157 198.061 68.3894 199.449 68.3894C199.865 68.3907 200.278 68.4513 200.677 68.5692L203.536 65.9047L203.758 66.1254C205.827 68.0257 207.721 70.1044 209.419 72.3371C210.335 73.4891 210.883 74.8867 210.993 76.3502C210.994 76.7634 210.93 77.1743 210.803 77.568C210.654 78.0283 210.446 78.4677 210.185 78.8758L209.567 79.8484C209.073 80.44 208.45 80.9124 207.745 81.2296C207.04 81.5468 206.271 81.7006 205.497 81.6792ZM204.071 77.0613C204.442 77.2511 204.85 77.3598 205.266 77.38C205.512 77.3885 205.753 77.3136 205.95 77.1675L206.28 76.8243C206.442 76.6485 206.527 76.4166 206.519 76.1786C206.475 75.7134 206.291 75.272 205.991 74.9117C205.722 74.4788 205.41 74.0736 205.06 73.702V73.8001C205.067 74.4816 204.944 75.1581 204.698 75.7944C204.547 76.2399 204.336 76.6633 204.071 77.0531V77.0613ZM157.576 72.8275C157.372 72.8156 157.167 72.8491 156.978 72.9254C156.788 73.0018 156.618 73.1191 156.48 73.2689C156.221 73.635 156.081 74.0717 156.081 74.5194C156.081 74.967 156.221 75.4037 156.48 75.7699C156.624 75.9147 156.796 76.0286 156.986 76.1046C157.176 76.1805 157.379 76.2168 157.584 76.2113C157.794 76.2209 158.004 76.1841 158.197 76.1035C158.391 76.0229 158.564 75.9006 158.705 75.7454C158.993 75.3994 159.143 74.9599 159.125 74.5112C159.144 74.0674 158.994 73.6328 158.705 73.2934C158.565 73.1346 158.391 73.0095 158.195 72.9274C158 72.8452 157.788 72.8083 157.576 72.8193V72.8275ZM199.4 72.615C199.129 72.5902 198.859 72.6659 198.642 72.8275C198.465 73.0082 198.359 73.2462 198.345 73.4977C198.363 73.8551 198.509 74.1944 198.757 74.454C199.148 74.7595 199.592 74.9921 200.067 75.1405L200.281 75.1978H200.463C200.825 75.1978 201.048 75.0915 201.048 74.5521C201.033 74.0671 200.849 73.6022 200.528 73.2362C200.405 73.0489 200.238 72.8939 200.042 72.7843C199.845 72.6748 199.625 72.6139 199.4 72.6068V72.615Z" fill="white"/>
<path d="M203.577 66.3623L200.817 68.9369C200.392 68.7955 199.947 68.721 199.499 68.7162C198.19 68.7176 196.932 69.2146 195.98 70.1056C195.488 70.5265 195.095 71.0488 194.827 71.636C194.56 72.2233 194.425 72.8613 194.431 73.5057C194.45 73.9826 194.53 74.4551 194.67 74.9116C194.835 75.3447 194.951 75.639 195.025 75.7861C195.122 75.9933 195.235 76.1927 195.362 76.3827H193.41C192.769 76.445 192.123 76.326 191.548 76.0395C191.393 75.9386 191.267 75.7999 191.182 75.6367C191.096 75.4735 191.055 75.2913 191.061 75.1077V62.6025H187.09V74.5846C187.105 75.0681 187.058 75.5514 186.95 76.0231C186.818 76.2683 186.521 76.3909 186.06 76.3909H165.231C164.532 76.4779 163.823 76.3645 163.187 76.064C162.871 75.6078 162.739 75.0509 162.816 74.5029C162.853 72.9961 162.304 71.5331 161.284 70.4162C160.806 69.8854 160.217 69.4643 159.558 69.182C158.899 68.8997 158.186 68.7631 157.469 68.7816C156.767 68.7674 156.07 68.9065 155.428 69.189C154.786 69.4715 154.214 69.8904 153.753 70.4162C152.761 71.5451 152.24 73.0063 152.295 74.5029C152.295 75.4592 152.171 76.0231 151.932 76.1948C151.193 76.4425 150.41 76.5317 149.633 76.4563H111.839C111.072 76.5356 110.298 76.4085 109.597 76.0885C109.403 75.8128 109.32 75.474 109.367 75.1404V70.9066H105.321V75.1404C105.321 75.7125 105.222 76.064 105.008 76.2029C104.743 76.3624 104.435 76.4366 104.126 76.4154H92.2451C91.6683 76.4154 91.3388 76.3174 91.2316 76.1049C91.1072 75.7991 91.0537 75.4695 91.0751 75.1404V70.9066H87.046V75.4673C87.02 76.7265 87.473 77.9492 88.3149 78.892C88.6872 79.3432 89.1562 79.7065 89.6878 79.9553C90.2195 80.2042 90.8003 80.3323 91.3882 80.3305H104.95C105.394 80.3366 105.836 80.2618 106.252 80.1098C106.634 79.9642 106.994 79.769 107.323 79.5295C107.714 79.8436 108.179 80.0545 108.675 80.1425C109.33 80.2555 109.995 80.313 110.66 80.3141H150.515C150.762 80.3141 150.993 80.2896 151.207 80.2406C151.603 80.1874 151.992 80.0943 152.369 79.9627C152.677 79.8919 152.963 79.7488 153.204 79.5454C153.445 79.342 153.633 79.0843 153.753 78.7939C154.157 79.2059 154.621 79.5558 155.129 79.8319C155.849 80.182 156.642 80.3584 157.444 80.3468C157.778 80.351 158.112 80.3263 158.441 80.2733C158.734 80.2228 159.023 80.1517 159.306 80.0607C159.99 79.8138 160.608 79.4139 161.111 78.892C161.585 79.4322 162.201 79.8312 162.891 80.0444C163.29 80.1593 163.698 80.244 164.11 80.2978V80.3632H184.412L186.95 80.3059C187.719 80.3034 188.464 80.0378 189.059 79.554C189.63 80.0296 190.349 80.2952 191.094 80.3059C191.371 80.3154 191.646 80.3427 191.918 80.3877H194.39C196.038 80.3877 197.093 80.3386 197.554 80.2814C198.299 80.159 199.021 79.9277 199.696 79.5949C200.71 80.17 201.782 80.6384 202.893 80.9925C203.734 81.2548 204.608 81.3979 205.489 81.4175C206.213 81.4531 206.936 81.3244 207.603 81.0412C208.27 80.7579 208.863 80.3276 209.337 79.7829L209.955 78.8102C210.203 78.4269 210.397 78.0116 210.531 77.5761C210.65 77.2145 210.712 76.8367 210.713 76.4563C210.598 75.061 210.071 73.7304 209.197 72.6312C207.515 70.38 205.635 68.282 203.577 66.3623ZM158.944 75.9577C158.772 76.1464 158.56 76.2955 158.324 76.3943C158.088 76.4932 157.832 76.5394 157.576 76.5299C157.324 76.5354 157.074 76.4889 156.841 76.3932C156.609 76.2975 156.399 76.1548 156.225 75.9741C155.912 75.5526 155.743 75.0428 155.743 74.5192C155.743 73.9957 155.912 73.4858 156.225 73.0644C156.391 72.8759 156.598 72.7278 156.831 72.6315C157.064 72.5351 157.316 72.4931 157.568 72.5086C157.824 72.4973 158.08 72.5428 158.317 72.6418C158.553 72.7407 158.765 72.8907 158.936 73.0807C159.272 73.4813 159.448 73.9903 159.43 74.5111C159.45 75.0358 159.277 75.5499 158.944 75.9577ZM200.463 75.5082H200.191L199.952 75.4428C199.42 75.2703 198.93 74.9922 198.51 74.6255C198.208 74.2959 198.035 73.8694 198.024 73.424C198.029 73.2551 198.07 73.0891 198.144 72.9368C198.218 72.7844 198.323 72.649 198.452 72.539C198.582 72.4291 198.733 72.3471 198.896 72.2982C199.059 72.2494 199.231 72.2347 199.4 72.2552C199.673 72.2615 199.94 72.3314 200.18 72.4592C200.421 72.5869 200.628 72.7691 200.784 72.9908C201.151 73.4156 201.36 73.952 201.377 74.5111C201.377 75.1813 201.072 75.5 200.463 75.5V75.5082ZM206.511 77.053L206.156 77.4208C205.9 77.6104 205.586 77.7083 205.266 77.6987C204.684 77.6554 204.12 77.4792 203.618 77.1837C203.982 76.7358 204.261 76.2263 204.442 75.6798C204.67 75.0876 204.785 74.4584 204.78 73.8245V73.3586V72.8764C205.395 73.4148 205.931 74.0366 206.37 74.7236C206.713 75.1462 206.917 75.6623 206.955 76.2029C206.922 76.53 206.763 76.8316 206.511 77.0448V77.053Z" fill="white"/>
</svg>
