<svg width="16" height="16" viewBox="0 0 16 16" fill="none" xmlns="http://www.w3.org/2000/svg">
<path opacity="0.4" d="M3.97016 8.83334C3.68162 8.8333 3.41706 8.83327 3.20186 8.86221C2.96487 8.89407 2.71439 8.96903 2.50837 9.17505C2.30235 9.38106 2.22739 9.63155 2.19553 9.86854C2.16659 10.0837 2.16662 10.3483 2.16666 10.6368L2.16666 12.3757C2.16663 12.5945 2.16661 12.7994 2.18657 12.9707C2.20879 13.1614 2.26025 13.3618 2.39836 13.5469C2.53648 13.7319 2.71401 13.8383 2.89045 13.9138C3.049 13.9817 3.24552 14.04 3.45526 14.1022L6.78786 15.0911C7.27083 15.2344 7.78847 15.172 8.22513 14.9201L13.2355 12.0292C13.8576 11.6703 14.0178 10.8426 13.6034 10.2688C13.1415 9.62916 12.3345 9.34726 11.5808 9.5816L11.5798 9.58192L10.1628 10.0173C9.99703 10.0682 9.91414 10.0937 9.88815 10.1415C9.86217 10.1893 9.89317 10.2983 9.95517 10.5162C10.0024 10.6824 10.008 10.8418 9.99996 10.9315C9.99996 11.5857 9.55397 12.114 8.97781 12.2733L7.28386 12.7416C6.66941 12.9115 6.01124 12.8531 5.43591 12.5747L4.35572 12.0521C4.14857 11.9519 4.0619 11.7027 4.16212 11.4955C4.26235 11.2884 4.51152 11.2017 4.71867 11.3019L5.79886 11.8246C6.19127 12.0144 6.64144 12.0546 7.06179 11.9384L8.75573 11.4701C8.98913 11.4056 9.16663 11.1923 9.16663 10.9315C9.16663 9.9895 8.38218 9.75017 7.44938 9.75017L6.75433 9.75009C6.63315 9.75009 6.51424 9.72276 6.40719 9.67096L5.04588 9.0123C4.80213 8.89437 4.53423 8.83334 4.26321 8.83334L3.97016 8.83334Z" fill="#161616"/>
<path d="M8.74312 1.99665C8.58127 1.66888 8.28127 1.33334 7.83339 1.33334C7.38616 1.33334 7.08541 1.66816 6.9223 1.99538L6.4576 2.93246L6.45341 2.93648C6.45015 2.93946 6.44634 2.94263 6.44213 2.94577C6.43792 2.94892 6.43378 2.95169 6.42997 2.954L6.42523 2.95672L5.59136 3.09641C5.23071 3.15701 4.83913 3.35049 4.70735 3.76656C4.57618 4.18072 4.78216 4.56447 5.03899 4.82343L5.69071 5.48053C5.69298 5.48524 5.69595 5.49252 5.69859 5.50179C5.70151 5.5121 5.70289 5.52093 5.70338 5.52676L5.51726 6.33815C5.4326 6.70709 5.42686 7.21613 5.82228 7.50704C6.22017 7.79977 6.70442 7.63793 7.02902 7.44375L7.8125 6.97613C7.84409 6.95726 7.85348 6.96797 7.85422 6.97569L8.63868 7.44391C8.96217 7.63657 9.44757 7.80104 9.846 7.50818C10.2424 7.21684 10.2343 6.70621 10.1503 6.33859L9.96407 5.52676C9.96456 5.52093 9.96594 5.5121 9.96887 5.50179C9.9715 5.49252 9.97448 5.48524 9.97675 5.48053L10.6273 4.82464L10.6279 4.82402C10.8863 4.56495 11.0931 4.18066 10.9608 3.76566C10.8283 3.34999 10.4365 3.15697 10.0763 3.09645L9.23961 2.95628L9.2341 2.95317C9.23031 2.95089 9.22621 2.94817 9.22205 2.94508C9.22053 2.94394 9.21906 2.94281 9.21765 2.94168C9.21523 2.93973 9.21299 2.93781 9.21097 2.93598L9.20711 2.93229L8.74342 1.99725L8.74312 1.99665Z" fill="#161616"/>
</svg>
