<svg width="18" height="18" viewBox="0 0 18 18" fill="none" xmlns="http://www.w3.org/2000/svg">
<path fill-rule="evenodd" clip-rule="evenodd" d="M8.97935 15.2761C6.5501 15.2761 4.47485 14.9086 4.47485 13.4371C4.47485 11.9656 6.5366 10.6846 8.97935 10.6846C11.4086 10.6846 13.4839 11.9536 13.4839 13.4243C13.4839 14.8951 11.4221 15.2761 8.97935 15.2761Z" stroke="#3B6C64" stroke-width="1.5" stroke-linecap="round" stroke-linejoin="round"/>
<path fill-rule="evenodd" clip-rule="evenodd" d="M8.97931 8.58651C10.5738 8.58651 11.8668 7.29426 11.8668 5.69976C11.8668 4.10526 10.5738 2.81226 8.97931 2.81226C7.38481 2.81226 6.09181 4.10526 6.09181 5.69976C6.08731 7.28826 7.36981 8.58126 8.95906 8.58651H8.97931Z" stroke="#3B6C64" stroke-width="1.5" stroke-linecap="round" stroke-linejoin="round"/>
<path d="M13.7715 7.79377C14.6992 7.54552 15.3832 6.69952 15.3832 5.69227C15.3832 4.64152 14.6385 3.76402 13.647 3.56152" stroke="#3B6C64" stroke-width="1.5" stroke-linecap="round" stroke-linejoin="round"/>
<path d="M14.2073 10.1582C15.5228 10.1582 16.6463 11.05 16.6463 11.8465C16.6463 12.3152 16.2585 12.826 15.6705 12.964" stroke="#3B6C64" stroke-width="1.5" stroke-linecap="round" stroke-linejoin="round"/>
<path d="M4.1877 7.79377C3.2592 7.54552 2.5752 6.69952 2.5752 5.69227C2.5752 4.64152 3.3207 3.76402 4.31145 3.56152" stroke="#3B6C64" stroke-width="1.5" stroke-linecap="round" stroke-linejoin="round"/>
<path d="M3.75126 10.1582C2.43576 10.1582 1.31226 11.05 1.31226 11.8465C1.31226 12.3152 1.70001 12.826 2.28876 12.964" stroke="#3B6C64" stroke-width="1.5" stroke-linecap="round" stroke-linejoin="round"/>
</svg>
