<svg width="16" height="16" viewBox="0 0 16 16" fill="none" xmlns="http://www.w3.org/2000/svg">
<mask id="path-1-outside-1_0_790" maskUnits="userSpaceOnUse" x="0" y="-0.146484" width="16" height="16" fill="black">
<rect fill="white" y="-0.146484" width="16" height="16"/>
<path d="M7.40202 1.00949C7.35866 1.01491 7.20421 1.03388 7.0633 1.05014C5.93063 1.1775 4.70853 1.67609 3.74387 2.39959C3.39973 2.65972 2.83881 3.20438 2.557 3.55394C1.6384 4.69203 1.11813 6.0198 1.01516 7.49119C0.950125 8.39895 1.09645 9.44491 1.41349 10.3039C1.56253 10.7104 1.91479 11.4068 2.14512 11.7509C3.27779 13.4472 4.97138 14.5067 7.04975 14.8183C7.40744 14.8698 8.54011 14.8644 8.9005 14.8048C10.6347 14.523 12.0899 13.7317 13.1656 12.4825C14.6262 10.7862 15.179 8.56695 14.6885 6.37478C14.488 5.47243 14.0409 4.52131 13.4529 3.73549C13.2063 3.4049 12.6291 2.81147 12.2958 2.5432C11.3203 1.75738 10.1768 1.25879 8.90592 1.06098C8.63495 1.01762 7.58899 0.982394 7.40202 1.00949ZM7.71364 2.99031V4.52944L7.45079 4.52131C7.0633 4.51047 6.43464 4.44273 5.99837 4.36686C5.60817 4.2964 5.09332 4.1826 5.06893 4.15821C5.02557 4.11214 5.45371 3.25858 5.71114 2.8765C6.00108 2.44836 6.3669 2.06087 6.69477 1.83596C6.96033 1.6517 7.43724 1.45931 7.64047 1.4566L7.71364 1.45389V2.99031ZM8.43172 1.49454C8.6214 1.54331 8.98992 1.71402 9.15793 1.83054C9.64568 2.16926 10.109 2.72747 10.4613 3.40761C10.6618 3.78968 10.8136 4.13382 10.7919 4.1555C10.7648 4.1826 10.25 4.29912 9.86246 4.36686C9.42348 4.44273 8.79482 4.51047 8.41004 4.52131L8.14719 4.52944V2.99031V1.45389H8.20952C8.24204 1.45389 8.34501 1.47286 8.43172 1.49454ZM5.93334 1.94706C5.44558 2.44836 5.03912 3.08515 4.71937 3.84659C4.62995 4.06066 4.66518 4.05795 4.24517 3.90078C3.9471 3.78968 3.28592 3.48077 3.26153 3.44013C3.23986 3.4049 3.70864 2.97676 4.04465 2.72476C4.38337 2.47275 4.67873 2.2912 5.09603 2.08526C5.41849 1.92809 6.07153 1.67609 6.16638 1.67338C6.18805 1.67067 6.08508 1.79532 5.93334 1.94706ZM10.0332 1.78177C10.6293 1.985 11.2959 2.33455 11.8026 2.71392C12.1522 2.97405 12.6237 3.40219 12.602 3.43742C12.5749 3.48077 11.9137 3.78968 11.6157 3.90078C11.1957 4.05795 11.2309 4.06066 11.1415 3.84659C10.8244 3.08515 10.4288 2.46733 9.92478 1.94706C9.77846 1.79532 9.67007 1.67067 9.68362 1.67067C9.69988 1.67067 9.85704 1.71944 10.0332 1.78177ZM3.64632 4.12027C3.92542 4.24763 4.41317 4.4346 4.46195 4.4346C4.49989 4.4346 4.49718 4.44815 4.43214 4.65138C4.1991 5.39114 4.01484 6.45065 3.98503 7.21208C3.97691 7.42073 3.96607 7.61855 3.95794 7.65106L3.9471 7.71339H2.68436H1.42433L1.44059 7.51558C1.51646 6.60781 1.71427 5.87076 2.07467 5.12559C2.29145 4.67577 2.49739 4.33976 2.75481 4.00646L2.94449 3.75988L3.16398 3.88181C3.28321 3.94956 3.49999 4.05524 3.64632 4.12027ZM13.106 4.00375C13.3634 4.33976 13.5694 4.67306 13.7862 5.12559C14.1466 5.87076 14.3444 6.60781 14.4202 7.51558L14.4365 7.71339H13.1765H11.9137L11.9029 7.65106C11.8948 7.61855 11.8839 7.42073 11.8758 7.21208C11.846 6.45065 11.6617 5.39114 11.4287 4.65138C11.3637 4.44815 11.3609 4.4346 11.3989 4.4346C11.5073 4.4346 12.4503 4.02814 12.7402 3.85743C12.8296 3.80594 12.9055 3.75988 12.9082 3.75988C12.9109 3.75717 13.0003 3.86827 13.106 4.00375ZM5.27487 4.66222C5.93334 4.81668 6.6189 4.91423 7.21233 4.93861C7.42098 4.94674 7.6188 4.95758 7.65402 4.96571L7.71364 4.97655V6.34497V7.71339H6.05528H4.39421L4.40233 7.43699C4.42401 6.62407 4.59744 5.55914 4.83047 4.79229C4.88467 4.60803 4.90635 4.57009 4.94428 4.58093C4.96867 4.58906 5.11771 4.62699 5.27487 4.66222ZM11.0304 4.79229C11.2634 5.55914 11.4151 6.47233 11.4639 7.42073L11.4802 7.71339H9.81369H8.14719V6.34497V4.97655L8.20952 4.96571C8.24204 4.95758 8.43985 4.94674 8.6485 4.93861C9.2609 4.91423 10.109 4.78958 10.6808 4.63783C10.8163 4.60261 10.9328 4.5728 10.9436 4.5728C10.9545 4.57009 10.9951 4.67035 11.0304 4.79229ZM3.95794 8.1903C3.96607 8.21469 3.9742 8.33121 3.9742 8.45315C3.9742 9.14955 4.18826 10.4313 4.43214 11.209C4.46195 11.3038 4.48363 11.3851 4.48092 11.3851C4.47821 11.3878 4.34814 11.4339 4.19097 11.4908C3.87935 11.6046 3.41599 11.8132 3.12334 11.9731C3.02037 12.03 2.93366 12.0761 2.92824 12.0761C2.90385 12.0761 2.50552 11.5206 2.37816 11.3092C1.84163 10.4177 1.53543 9.45033 1.44059 8.34205L1.42433 8.14694H2.68165C3.80619 8.14694 3.94439 8.15236 3.95794 8.1903ZM7.71364 9.50994V10.8757L7.30176 10.8919C6.646 10.919 5.82495 11.0355 5.18274 11.1981C5.03641 11.236 4.90635 11.255 4.89551 11.2442C4.8657 11.2117 4.68686 10.5369 4.61098 10.1657C4.49447 9.59395 4.4213 8.96529 4.40233 8.36914L4.39421 8.14694H6.05257H7.71364V9.50994ZM11.4612 8.34205C11.4233 9.29587 11.2688 10.2578 11.0304 11.0437C10.968 11.2496 10.9572 11.2659 10.903 11.2523C10.2798 11.0735 9.29883 10.9217 8.57533 10.8919L8.14719 10.8757V9.50994V8.14694H9.80827H11.4693L11.4612 8.34205ZM14.4202 8.34205C14.3254 9.45033 14.0192 10.4177 13.4827 11.3092C13.3553 11.5206 12.957 12.0761 12.9326 12.0761C12.9272 12.0761 12.8107 12.0137 12.6725 11.9379C12.3934 11.7834 11.9327 11.5802 11.6021 11.4664C11.4829 11.423 11.3826 11.3878 11.3799 11.3851C11.3772 11.3851 11.3989 11.3038 11.4287 11.209C11.6617 10.4611 11.846 9.40697 11.8758 8.64825C11.8839 8.4396 11.8948 8.24179 11.9029 8.20656L11.9137 8.14694H13.1765H14.4365L14.4202 8.34205ZM7.71364 12.8619V14.4064H7.65131C7.45892 14.4064 6.96033 14.2086 6.69477 14.0244C6.35335 13.7913 6.00108 13.412 5.69488 12.9567C5.42933 12.5611 5.01745 11.7292 5.06351 11.6832C5.10145 11.6425 5.87914 11.4799 6.34522 11.4122C6.76523 11.3526 7.08498 11.3255 7.42369 11.3201L7.71364 11.3173V12.8619ZM9.30696 11.3851C9.83265 11.4501 10.7458 11.6317 10.7946 11.6777C10.8434 11.7265 10.4396 12.5449 10.166 12.9567C9.77033 13.5475 9.33677 13.9593 8.86528 14.1924C8.60514 14.3197 8.33959 14.4064 8.20952 14.4064H8.14719V12.8565V11.3092L8.56179 11.3255C8.78669 11.3363 9.1227 11.3607 9.30696 11.3851ZM4.67602 11.9054C4.74105 12.0896 5.02015 12.6614 5.17461 12.9215C5.3941 13.2955 5.62714 13.5989 5.93334 13.9106C6.08508 14.065 6.19347 14.1897 6.17721 14.1897C6.0905 14.1897 5.45642 13.9458 5.12583 13.7859C4.69228 13.5746 4.40504 13.4038 4.04736 13.1383C3.77096 12.9323 3.24257 12.4663 3.24257 12.4283C3.24257 12.3958 3.54064 12.2305 3.84413 12.0977C4.10968 11.9812 4.56492 11.8078 4.61098 11.8051C4.62724 11.8051 4.65705 11.8512 4.67602 11.9054ZM11.6157 11.9325C11.9083 12.0408 12.4963 12.3172 12.5776 12.385C12.6318 12.4283 12.6264 12.4338 12.4286 12.6207C11.7213 13.29 10.9355 13.7669 10.0332 14.0786C9.85704 14.1409 9.69988 14.1897 9.68362 14.1897C9.67007 14.1897 9.77846 14.065 9.92478 13.9106C10.231 13.5962 10.4315 13.3361 10.6564 12.9676C10.8109 12.7129 11.1171 12.1005 11.1848 11.9054C11.2282 11.7834 11.2173 11.7834 11.6157 11.9325Z"/>
</mask>
<path d="M7.40202 1.00949C7.35866 1.01491 7.20421 1.03388 7.0633 1.05014C5.93063 1.1775 4.70853 1.67609 3.74387 2.39959C3.39973 2.65972 2.83881 3.20438 2.557 3.55394C1.6384 4.69203 1.11813 6.0198 1.01516 7.49119C0.950125 8.39895 1.09645 9.44491 1.41349 10.3039C1.56253 10.7104 1.91479 11.4068 2.14512 11.7509C3.27779 13.4472 4.97138 14.5067 7.04975 14.8183C7.40744 14.8698 8.54011 14.8644 8.9005 14.8048C10.6347 14.523 12.0899 13.7317 13.1656 12.4825C14.6262 10.7862 15.179 8.56695 14.6885 6.37478C14.488 5.47243 14.0409 4.52131 13.4529 3.73549C13.2063 3.4049 12.6291 2.81147 12.2958 2.5432C11.3203 1.75738 10.1768 1.25879 8.90592 1.06098C8.63495 1.01762 7.58899 0.982394 7.40202 1.00949ZM7.71364 2.99031V4.52944L7.45079 4.52131C7.0633 4.51047 6.43464 4.44273 5.99837 4.36686C5.60817 4.2964 5.09332 4.1826 5.06893 4.15821C5.02557 4.11214 5.45371 3.25858 5.71114 2.8765C6.00108 2.44836 6.3669 2.06087 6.69477 1.83596C6.96033 1.6517 7.43724 1.45931 7.64047 1.4566L7.71364 1.45389V2.99031ZM8.43172 1.49454C8.6214 1.54331 8.98992 1.71402 9.15793 1.83054C9.64568 2.16926 10.109 2.72747 10.4613 3.40761C10.6618 3.78968 10.8136 4.13382 10.7919 4.1555C10.7648 4.1826 10.25 4.29912 9.86246 4.36686C9.42348 4.44273 8.79482 4.51047 8.41004 4.52131L8.14719 4.52944V2.99031V1.45389H8.20952C8.24204 1.45389 8.34501 1.47286 8.43172 1.49454ZM5.93334 1.94706C5.44558 2.44836 5.03912 3.08515 4.71937 3.84659C4.62995 4.06066 4.66518 4.05795 4.24517 3.90078C3.9471 3.78968 3.28592 3.48077 3.26153 3.44013C3.23986 3.4049 3.70864 2.97676 4.04465 2.72476C4.38337 2.47275 4.67873 2.2912 5.09603 2.08526C5.41849 1.92809 6.07153 1.67609 6.16638 1.67338C6.18805 1.67067 6.08508 1.79532 5.93334 1.94706ZM10.0332 1.78177C10.6293 1.985 11.2959 2.33455 11.8026 2.71392C12.1522 2.97405 12.6237 3.40219 12.602 3.43742C12.5749 3.48077 11.9137 3.78968 11.6157 3.90078C11.1957 4.05795 11.2309 4.06066 11.1415 3.84659C10.8244 3.08515 10.4288 2.46733 9.92478 1.94706C9.77846 1.79532 9.67007 1.67067 9.68362 1.67067C9.69988 1.67067 9.85704 1.71944 10.0332 1.78177ZM3.64632 4.12027C3.92542 4.24763 4.41317 4.4346 4.46195 4.4346C4.49989 4.4346 4.49718 4.44815 4.43214 4.65138C4.1991 5.39114 4.01484 6.45065 3.98503 7.21208C3.97691 7.42073 3.96607 7.61855 3.95794 7.65106L3.9471 7.71339H2.68436H1.42433L1.44059 7.51558C1.51646 6.60781 1.71427 5.87076 2.07467 5.12559C2.29145 4.67577 2.49739 4.33976 2.75481 4.00646L2.94449 3.75988L3.16398 3.88181C3.28321 3.94956 3.49999 4.05524 3.64632 4.12027ZM13.106 4.00375C13.3634 4.33976 13.5694 4.67306 13.7862 5.12559C14.1466 5.87076 14.3444 6.60781 14.4202 7.51558L14.4365 7.71339H13.1765H11.9137L11.9029 7.65106C11.8948 7.61855 11.8839 7.42073 11.8758 7.21208C11.846 6.45065 11.6617 5.39114 11.4287 4.65138C11.3637 4.44815 11.3609 4.4346 11.3989 4.4346C11.5073 4.4346 12.4503 4.02814 12.7402 3.85743C12.8296 3.80594 12.9055 3.75988 12.9082 3.75988C12.9109 3.75717 13.0003 3.86827 13.106 4.00375ZM5.27487 4.66222C5.93334 4.81668 6.6189 4.91423 7.21233 4.93861C7.42098 4.94674 7.6188 4.95758 7.65402 4.96571L7.71364 4.97655V6.34497V7.71339H6.05528H4.39421L4.40233 7.43699C4.42401 6.62407 4.59744 5.55914 4.83047 4.79229C4.88467 4.60803 4.90635 4.57009 4.94428 4.58093C4.96867 4.58906 5.11771 4.62699 5.27487 4.66222ZM11.0304 4.79229C11.2634 5.55914 11.4151 6.47233 11.4639 7.42073L11.4802 7.71339H9.81369H8.14719V6.34497V4.97655L8.20952 4.96571C8.24204 4.95758 8.43985 4.94674 8.6485 4.93861C9.2609 4.91423 10.109 4.78958 10.6808 4.63783C10.8163 4.60261 10.9328 4.5728 10.9436 4.5728C10.9545 4.57009 10.9951 4.67035 11.0304 4.79229ZM3.95794 8.1903C3.96607 8.21469 3.9742 8.33121 3.9742 8.45315C3.9742 9.14955 4.18826 10.4313 4.43214 11.209C4.46195 11.3038 4.48363 11.3851 4.48092 11.3851C4.47821 11.3878 4.34814 11.4339 4.19097 11.4908C3.87935 11.6046 3.41599 11.8132 3.12334 11.9731C3.02037 12.03 2.93366 12.0761 2.92824 12.0761C2.90385 12.0761 2.50552 11.5206 2.37816 11.3092C1.84163 10.4177 1.53543 9.45033 1.44059 8.34205L1.42433 8.14694H2.68165C3.80619 8.14694 3.94439 8.15236 3.95794 8.1903ZM7.71364 9.50994V10.8757L7.30176 10.8919C6.646 10.919 5.82495 11.0355 5.18274 11.1981C5.03641 11.236 4.90635 11.255 4.89551 11.2442C4.8657 11.2117 4.68686 10.5369 4.61098 10.1657C4.49447 9.59395 4.4213 8.96529 4.40233 8.36914L4.39421 8.14694H6.05257H7.71364V9.50994ZM11.4612 8.34205C11.4233 9.29587 11.2688 10.2578 11.0304 11.0437C10.968 11.2496 10.9572 11.2659 10.903 11.2523C10.2798 11.0735 9.29883 10.9217 8.57533 10.8919L8.14719 10.8757V9.50994V8.14694H9.80827H11.4693L11.4612 8.34205ZM14.4202 8.34205C14.3254 9.45033 14.0192 10.4177 13.4827 11.3092C13.3553 11.5206 12.957 12.0761 12.9326 12.0761C12.9272 12.0761 12.8107 12.0137 12.6725 11.9379C12.3934 11.7834 11.9327 11.5802 11.6021 11.4664C11.4829 11.423 11.3826 11.3878 11.3799 11.3851C11.3772 11.3851 11.3989 11.3038 11.4287 11.209C11.6617 10.4611 11.846 9.40697 11.8758 8.64825C11.8839 8.4396 11.8948 8.24179 11.9029 8.20656L11.9137 8.14694H13.1765H14.4365L14.4202 8.34205ZM7.71364 12.8619V14.4064H7.65131C7.45892 14.4064 6.96033 14.2086 6.69477 14.0244C6.35335 13.7913 6.00108 13.412 5.69488 12.9567C5.42933 12.5611 5.01745 11.7292 5.06351 11.6832C5.10145 11.6425 5.87914 11.4799 6.34522 11.4122C6.76523 11.3526 7.08498 11.3255 7.42369 11.3201L7.71364 11.3173V12.8619ZM9.30696 11.3851C9.83265 11.4501 10.7458 11.6317 10.7946 11.6777C10.8434 11.7265 10.4396 12.5449 10.166 12.9567C9.77033 13.5475 9.33677 13.9593 8.86528 14.1924C8.60514 14.3197 8.33959 14.4064 8.20952 14.4064H8.14719V12.8565V11.3092L8.56179 11.3255C8.78669 11.3363 9.1227 11.3607 9.30696 11.3851ZM4.67602 11.9054C4.74105 12.0896 5.02015 12.6614 5.17461 12.9215C5.3941 13.2955 5.62714 13.5989 5.93334 13.9106C6.08508 14.065 6.19347 14.1897 6.17721 14.1897C6.0905 14.1897 5.45642 13.9458 5.12583 13.7859C4.69228 13.5746 4.40504 13.4038 4.04736 13.1383C3.77096 12.9323 3.24257 12.4663 3.24257 12.4283C3.24257 12.3958 3.54064 12.2305 3.84413 12.0977C4.10968 11.9812 4.56492 11.8078 4.61098 11.8051C4.62724 11.8051 4.65705 11.8512 4.67602 11.9054ZM11.6157 11.9325C11.9083 12.0408 12.4963 12.3172 12.5776 12.385C12.6318 12.4283 12.6264 12.4338 12.4286 12.6207C11.7213 13.29 10.9355 13.7669 10.0332 14.0786C9.85704 14.1409 9.69988 14.1897 9.68362 14.1897C9.67007 14.1897 9.77846 14.065 9.92478 13.9106C10.231 13.5962 10.4315 13.3361 10.6564 12.9676C10.8109 12.7129 11.1171 12.1005 11.1848 11.9054C11.2282 11.7834 11.2173 11.7834 11.6157 11.9325Z" fill="#3B6C64"/>
<path d="M7.40202 1.00949C7.35866 1.01491 7.20421 1.03388 7.0633 1.05014C5.93063 1.1775 4.70853 1.67609 3.74387 2.39959C3.39973 2.65972 2.83881 3.20438 2.557 3.55394C1.6384 4.69203 1.11813 6.0198 1.01516 7.49119C0.950125 8.39895 1.09645 9.44491 1.41349 10.3039C1.56253 10.7104 1.91479 11.4068 2.14512 11.7509C3.27779 13.4472 4.97138 14.5067 7.04975 14.8183C7.40744 14.8698 8.54011 14.8644 8.9005 14.8048C10.6347 14.523 12.0899 13.7317 13.1656 12.4825C14.6262 10.7862 15.179 8.56695 14.6885 6.37478C14.488 5.47243 14.0409 4.52131 13.4529 3.73549C13.2063 3.4049 12.6291 2.81147 12.2958 2.5432C11.3203 1.75738 10.1768 1.25879 8.90592 1.06098C8.63495 1.01762 7.58899 0.982394 7.40202 1.00949ZM7.71364 2.99031V4.52944L7.45079 4.52131C7.0633 4.51047 6.43464 4.44273 5.99837 4.36686C5.60817 4.2964 5.09332 4.1826 5.06893 4.15821C5.02557 4.11214 5.45371 3.25858 5.71114 2.8765C6.00108 2.44836 6.3669 2.06087 6.69477 1.83596C6.96033 1.6517 7.43724 1.45931 7.64047 1.4566L7.71364 1.45389V2.99031ZM8.43172 1.49454C8.6214 1.54331 8.98992 1.71402 9.15793 1.83054C9.64568 2.16926 10.109 2.72747 10.4613 3.40761C10.6618 3.78968 10.8136 4.13382 10.7919 4.1555C10.7648 4.1826 10.25 4.29912 9.86246 4.36686C9.42348 4.44273 8.79482 4.51047 8.41004 4.52131L8.14719 4.52944V2.99031V1.45389H8.20952C8.24204 1.45389 8.34501 1.47286 8.43172 1.49454ZM5.93334 1.94706C5.44558 2.44836 5.03912 3.08515 4.71937 3.84659C4.62995 4.06066 4.66518 4.05795 4.24517 3.90078C3.9471 3.78968 3.28592 3.48077 3.26153 3.44013C3.23986 3.4049 3.70864 2.97676 4.04465 2.72476C4.38337 2.47275 4.67873 2.2912 5.09603 2.08526C5.41849 1.92809 6.07153 1.67609 6.16638 1.67338C6.18805 1.67067 6.08508 1.79532 5.93334 1.94706ZM10.0332 1.78177C10.6293 1.985 11.2959 2.33455 11.8026 2.71392C12.1522 2.97405 12.6237 3.40219 12.602 3.43742C12.5749 3.48077 11.9137 3.78968 11.6157 3.90078C11.1957 4.05795 11.2309 4.06066 11.1415 3.84659C10.8244 3.08515 10.4288 2.46733 9.92478 1.94706C9.77846 1.79532 9.67007 1.67067 9.68362 1.67067C9.69988 1.67067 9.85704 1.71944 10.0332 1.78177ZM3.64632 4.12027C3.92542 4.24763 4.41317 4.4346 4.46195 4.4346C4.49989 4.4346 4.49718 4.44815 4.43214 4.65138C4.1991 5.39114 4.01484 6.45065 3.98503 7.21208C3.97691 7.42073 3.96607 7.61855 3.95794 7.65106L3.9471 7.71339H2.68436H1.42433L1.44059 7.51558C1.51646 6.60781 1.71427 5.87076 2.07467 5.12559C2.29145 4.67577 2.49739 4.33976 2.75481 4.00646L2.94449 3.75988L3.16398 3.88181C3.28321 3.94956 3.49999 4.05524 3.64632 4.12027ZM13.106 4.00375C13.3634 4.33976 13.5694 4.67306 13.7862 5.12559C14.1466 5.87076 14.3444 6.60781 14.4202 7.51558L14.4365 7.71339H13.1765H11.9137L11.9029 7.65106C11.8948 7.61855 11.8839 7.42073 11.8758 7.21208C11.846 6.45065 11.6617 5.39114 11.4287 4.65138C11.3637 4.44815 11.3609 4.4346 11.3989 4.4346C11.5073 4.4346 12.4503 4.02814 12.7402 3.85743C12.8296 3.80594 12.9055 3.75988 12.9082 3.75988C12.9109 3.75717 13.0003 3.86827 13.106 4.00375ZM5.27487 4.66222C5.93334 4.81668 6.6189 4.91423 7.21233 4.93861C7.42098 4.94674 7.6188 4.95758 7.65402 4.96571L7.71364 4.97655V6.34497V7.71339H6.05528H4.39421L4.40233 7.43699C4.42401 6.62407 4.59744 5.55914 4.83047 4.79229C4.88467 4.60803 4.90635 4.57009 4.94428 4.58093C4.96867 4.58906 5.11771 4.62699 5.27487 4.66222ZM11.0304 4.79229C11.2634 5.55914 11.4151 6.47233 11.4639 7.42073L11.4802 7.71339H9.81369H8.14719V6.34497V4.97655L8.20952 4.96571C8.24204 4.95758 8.43985 4.94674 8.6485 4.93861C9.2609 4.91423 10.109 4.78958 10.6808 4.63783C10.8163 4.60261 10.9328 4.5728 10.9436 4.5728C10.9545 4.57009 10.9951 4.67035 11.0304 4.79229ZM3.95794 8.1903C3.96607 8.21469 3.9742 8.33121 3.9742 8.45315C3.9742 9.14955 4.18826 10.4313 4.43214 11.209C4.46195 11.3038 4.48363 11.3851 4.48092 11.3851C4.47821 11.3878 4.34814 11.4339 4.19097 11.4908C3.87935 11.6046 3.41599 11.8132 3.12334 11.9731C3.02037 12.03 2.93366 12.0761 2.92824 12.0761C2.90385 12.0761 2.50552 11.5206 2.37816 11.3092C1.84163 10.4177 1.53543 9.45033 1.44059 8.34205L1.42433 8.14694H2.68165C3.80619 8.14694 3.94439 8.15236 3.95794 8.1903ZM7.71364 9.50994V10.8757L7.30176 10.8919C6.646 10.919 5.82495 11.0355 5.18274 11.1981C5.03641 11.236 4.90635 11.255 4.89551 11.2442C4.8657 11.2117 4.68686 10.5369 4.61098 10.1657C4.49447 9.59395 4.4213 8.96529 4.40233 8.36914L4.39421 8.14694H6.05257H7.71364V9.50994ZM11.4612 8.34205C11.4233 9.29587 11.2688 10.2578 11.0304 11.0437C10.968 11.2496 10.9572 11.2659 10.903 11.2523C10.2798 11.0735 9.29883 10.9217 8.57533 10.8919L8.14719 10.8757V9.50994V8.14694H9.80827H11.4693L11.4612 8.34205ZM14.4202 8.34205C14.3254 9.45033 14.0192 10.4177 13.4827 11.3092C13.3553 11.5206 12.957 12.0761 12.9326 12.0761C12.9272 12.0761 12.8107 12.0137 12.6725 11.9379C12.3934 11.7834 11.9327 11.5802 11.6021 11.4664C11.4829 11.423 11.3826 11.3878 11.3799 11.3851C11.3772 11.3851 11.3989 11.3038 11.4287 11.209C11.6617 10.4611 11.846 9.40697 11.8758 8.64825C11.8839 8.4396 11.8948 8.24179 11.9029 8.20656L11.9137 8.14694H13.1765H14.4365L14.4202 8.34205ZM7.71364 12.8619V14.4064H7.65131C7.45892 14.4064 6.96033 14.2086 6.69477 14.0244C6.35335 13.7913 6.00108 13.412 5.69488 12.9567C5.42933 12.5611 5.01745 11.7292 5.06351 11.6832C5.10145 11.6425 5.87914 11.4799 6.34522 11.4122C6.76523 11.3526 7.08498 11.3255 7.42369 11.3201L7.71364 11.3173V12.8619ZM9.30696 11.3851C9.83265 11.4501 10.7458 11.6317 10.7946 11.6777C10.8434 11.7265 10.4396 12.5449 10.166 12.9567C9.77033 13.5475 9.33677 13.9593 8.86528 14.1924C8.60514 14.3197 8.33959 14.4064 8.20952 14.4064H8.14719V12.8565V11.3092L8.56179 11.3255C8.78669 11.3363 9.1227 11.3607 9.30696 11.3851ZM4.67602 11.9054C4.74105 12.0896 5.02015 12.6614 5.17461 12.9215C5.3941 13.2955 5.62714 13.5989 5.93334 13.9106C6.08508 14.065 6.19347 14.1897 6.17721 14.1897C6.0905 14.1897 5.45642 13.9458 5.12583 13.7859C4.69228 13.5746 4.40504 13.4038 4.04736 13.1383C3.77096 12.9323 3.24257 12.4663 3.24257 12.4283C3.24257 12.3958 3.54064 12.2305 3.84413 12.0977C4.10968 11.9812 4.56492 11.8078 4.61098 11.8051C4.62724 11.8051 4.65705 11.8512 4.67602 11.9054ZM11.6157 11.9325C11.9083 12.0408 12.4963 12.3172 12.5776 12.385C12.6318 12.4283 12.6264 12.4338 12.4286 12.6207C11.7213 13.29 10.9355 13.7669 10.0332 14.0786C9.85704 14.1409 9.69988 14.1897 9.68362 14.1897C9.67007 14.1897 9.77846 14.065 9.92478 13.9106C10.231 13.5962 10.4315 13.3361 10.6564 12.9676C10.8109 12.7129 11.1171 12.1005 11.1848 11.9054C11.2282 11.7834 11.2173 11.7834 11.6157 11.9325Z" stroke="#3B6C64" stroke-width="0.6" mask="url(#path-1-outside-1_0_790)"/>
</svg>
