<svg width="21" height="20" viewBox="0 0 21 20" fill="none" xmlns="http://www.w3.org/2000/svg">
<path opacity="0.4" d="M3.16412 5.90386C4.43738 2.92748 7.47932 1.04163 10.6678 1.04163C13.8563 1.04163 16.8982 2.92748 18.1715 5.90386C19.3549 8.6704 18.7157 11.0301 17.3817 13.0507C16.2752 14.7267 14.6557 16.2189 13.1991 17.5609L13.199 17.5609L13.199 17.561C12.9403 17.7993 12.6868 18.0329 12.4422 18.262C11.963 18.7106 11.3264 18.9583 10.6678 18.9583C10.0091 18.9583 9.37262 18.7107 8.89343 18.262L8.89205 18.2607C8.63325 18.0169 8.36421 17.7681 8.08949 17.5141L8.08936 17.514C6.64846 16.1815 5.05131 14.7045 3.95627 13.0496C2.62064 11.0311 1.97915 8.67383 3.16412 5.90386Z" fill="#13B0E4"/>
<path d="M7.33301 9.16671C7.33301 7.32576 8.82539 5.83337 10.6663 5.83337C12.5073 5.83337 13.9997 7.32576 13.9997 9.16671C13.9997 11.0077 12.5073 12.5 10.6663 12.5C8.82539 12.5 7.33301 11.0077 7.33301 9.16671Z" fill="#13B0E4"/>
</svg>
