<svg width="16" height="16" viewBox="0 0 16 16" fill="none" xmlns="http://www.w3.org/2000/svg">
<g opacity="0.8">
<path opacity="0.4" d="M1.99809 4.72312C3.0167 2.34202 5.45025 0.833336 8.00103 0.833336C10.5518 0.833336 12.9854 2.34202 14.004 4.72312C14.9508 6.93636 14.4394 8.82412 13.3722 10.4406C12.4869 11.7814 11.1913 12.9751 10.026 14.0488L10.026 14.0488L10.026 14.0488C9.81905 14.2395 9.61622 14.4264 9.42054 14.6096C9.03719 14.9685 8.52795 15.1667 8.00103 15.1667C7.4741 15.1667 6.96489 14.9686 6.58154 14.6096L6.58044 14.6086C6.3734 14.4136 6.15816 14.2145 5.93839 14.0113L5.93828 14.0112C4.78556 12.9452 3.50785 11.7636 2.63181 10.4397C1.56331 8.82488 1.05012 6.9391 1.99809 4.72312Z" fill="#161616"/>
<path d="M7.99998 4.96276C8.43388 4.66102 9.13402 4.49541 9.89159 4.93718C10.4566 5.26666 10.7495 5.93873 10.6462 6.671C10.5421 7.40879 10.0467 8.20064 9.068 8.88929C8.75699 9.10873 8.43863 9.33333 7.99998 9.33333C7.56133 9.33333 7.24297 9.10873 6.93196 8.88929C5.95329 8.20064 5.45789 7.40879 5.3538 6.671C5.25049 5.93873 5.54337 5.26666 6.10837 4.93718C6.86594 4.49541 7.56608 4.66102 7.99998 4.96276Z" fill="#161616"/>
</g>
</svg>
