<svg width="20" height="20" viewBox="0 0 20 20" fill="none" xmlns="http://www.w3.org/2000/svg">
<path opacity="0.4" d="M1.875 9.10476C1.875 4.67458 5.60376 1.04163 10 1.04163C14.3962 1.04163 18.125 4.67458 18.125 9.10476C18.125 11.366 17.1669 13.2671 15.8222 14.8364C14.4827 16.3996 12.7379 17.6606 11.0987 18.6636L11.0893 18.6694L11.0797 18.6748C10.7504 18.8607 10.3783 18.9583 10 18.9583C9.6217 18.9583 9.24963 18.8607 8.92027 18.6748L8.90927 18.6686L8.89853 18.662C7.26528 17.6509 5.5208 16.3939 4.18074 14.8354C2.83489 13.27 1.875 11.3735 1.875 9.10476Z" fill="#13B0E4"/>
<path d="M14.119 6.38873C14.2727 6.82256 14.0455 7.29881 13.6117 7.45246C13.167 7.60996 12.6533 7.949 12.1091 8.42628C11.5735 8.89598 11.0525 9.46009 10.591 10.0133C10.1312 10.5645 9.74054 11.0926 9.46467 11.4834C9.32703 11.6784 9.03689 12.1138 9.03689 12.1138C8.87582 12.3672 8.59076 12.5145 8.29088 12.4992C7.99093 12.4838 7.72246 12.3082 7.58814 12.0396C7.2209 11.3051 6.75885 10.8458 6.58881 10.83C6.16516 10.7907 5.8335 10.4342 5.8335 10.0003C5.8335 9.54003 6.20659 9.16693 6.66683 9.16693C7.12707 9.16693 7.42125 9.36278 7.64991 9.51523C7.87848 9.6676 8.11819 9.87824 8.35882 10.1665C8.62147 9.8075 8.94516 9.38444 9.31124 8.94561C9.80565 8.35295 10.3876 7.71914 11.0101 7.17322C11.624 6.63487 12.3235 6.14058 13.0553 5.88141C13.4891 5.72776 13.9654 5.9549 14.119 6.38873Z" fill="#13B0E4"/>
</svg>
