<svg width="19" height="18" viewBox="0 0 19 18" fill="none" xmlns="http://www.w3.org/2000/svg">
<path fill-rule="evenodd" clip-rule="evenodd" d="M7.10581 8.307C6.71206 8.307 6.40073 8.613 6.40073 9C6.40073 9.378 6.71206 9.693 7.10581 9.693H12.6V8.30718H16.326L14.886 6.87618C14.616 6.60618 14.616 6.16518 14.886 5.89518C15.156 5.61618 15.597 5.61618 15.867 5.88618L18.495 8.50518C18.63 8.64018 18.702 8.81118 18.702 9.00018C18.702 9.18018 18.63 9.36018 18.495 9.48618L15.867 12.1052C15.732 12.2402 15.552 12.3122 15.381 12.3122C15.201 12.3122 15.021 12.2402 14.886 12.1052C14.616 11.8352 14.616 11.3942 14.886 11.1242L16.326 9.69318H12.6V13.995C12.6 16.2 10.7778 18 8.52515 18H4.0657C1.82224 18 0 16.209 0 14.004V4.005C0 1.791 1.8314 0 4.07485 0H8.54346C10.7778 0 12.6 1.791 12.6 3.996V8.307H7.10581Z" fill="#3B6C64"/>
</svg>
