<svg width="20" height="20" viewBox="0 0 20 20" fill="none" xmlns="http://www.w3.org/2000/svg">
<path fill-rule="evenodd" clip-rule="evenodd" d="M3.75016 10.8333C2.13933 10.8333 0.833496 12.1391 0.833496 13.7499C0.833496 15.3607 2.13933 16.6666 3.75016 16.6666C5.36099 16.6666 6.66683 15.3607 6.66683 13.7499C6.66683 12.1391 5.36099 10.8333 3.75016 10.8333ZM2.50016 13.7499C2.50016 13.0596 3.05981 12.4999 3.75016 12.4999C4.44052 12.4999 5.00016 13.0596 5.00016 13.7499C5.00016 14.4403 4.44052 14.9999 3.75016 14.9999C3.05981 14.9999 2.50016 14.4403 2.50016 13.7499Z" fill="white"/>
<path fill-rule="evenodd" clip-rule="evenodd" d="M16.2502 10.8333C14.6393 10.8333 13.3335 12.1391 13.3335 13.7499C13.3335 15.3607 14.6393 16.6666 16.2502 16.6666C17.861 16.6666 19.1668 15.3607 19.1668 13.7499C19.1668 12.1391 17.861 10.8333 16.2502 10.8333ZM15.0002 13.7499C15.0002 13.0596 15.5598 12.4999 16.2502 12.4999C16.9405 12.4999 17.5002 13.0596 17.5002 13.7499C17.5002 14.4403 16.9405 14.9999 16.2502 14.9999C15.5598 14.9999 15.0002 14.4403 15.0002 13.7499Z" fill="white"/>
<path opacity="0.4" d="M13.2192 3.75692C13.4456 3.35618 13.9539 3.2148 14.3546 3.44113C15.7475 4.22779 16.7705 5.13354 17.5063 6.02895C18.6677 7.44214 19.1237 8.84436 19.1653 9.7062C19.1794 9.99668 19.041 10.2735 18.8001 10.4365C18.5593 10.5996 18.2509 10.6252 17.9864 10.5043C17.5357 10.2982 17.0269 10.1812 16.4852 10.1812C14.786 10.1812 13.3274 11.316 12.9915 12.7038C12.9454 12.8945 12.8917 13.1165 12.8393 13.2714C12.7896 13.4182 12.6851 13.6959 12.4269 13.8991C12.1888 14.0864 11.9297 14.1333 11.7627 14.151C11.6123 14.1669 11.4355 14.1668 11.2782 14.1667H11.2781H8.82194H8.82187C8.66334 14.1668 8.48529 14.1669 8.33375 14.1508C8.1656 14.1329 7.9046 14.0853 7.66563 13.8954C7.40775 13.6904 7.30474 13.4124 7.25563 13.2633C7.20438 13.1078 7.15286 12.8854 7.10889 12.6956C6.94451 11.9867 6.52122 11.3063 5.95876 10.8219C5.39587 10.3371 4.75068 10.0939 4.14759 10.1393C3.87875 10.1595 3.71402 10.158 3.57944 10.128C3.38898 10.0855 3.21657 9.98607 3.13235 9.9375L3.13235 9.9375C2.8854 9.80126 2.27876 9.46477 2.03112 9.31372C1.31246 8.87536 0.862659 8.10474 0.834387 7.2634C0.82411 6.95754 0.900925 6.57854 1.15776 6.27258C1.45666 5.91651 1.91901 5.76141 2.40188 5.87504L8.16757 7.22497C9.94475 6.15937 11.7741 5.22226 13.8991 5.98981C14.1376 6.07597 14.3597 6.15243 14.4741 6.18907C14.5474 6.16775 15.0716 6.02259 15.1441 6.00338C14.6927 5.6217 14.1606 5.24566 13.535 4.89233C13.1343 4.666 12.9929 4.15766 13.2192 3.75692Z" fill="white"/>
</svg>
