<svg width="20" height="20" viewBox="0 0 20 20" fill="none" xmlns="http://www.w3.org/2000/svg">
<path fill-rule="evenodd" clip-rule="evenodd" d="M16.2498 10.8333C17.8607 10.8333 19.1665 12.1391 19.1665 13.7499C19.1665 15.3607 17.8607 16.6666 16.2498 16.6666C14.639 16.6666 13.3332 15.3607 13.3332 13.7499C13.3332 12.1391 14.639 10.8333 16.2498 10.8333ZM17.4998 13.7499C17.4998 13.0596 16.9402 12.4999 16.2498 12.4999C15.5595 12.4999 14.9998 13.0596 14.9998 13.7499C14.9998 14.4403 15.5595 14.9999 16.2498 14.9999C16.9402 14.9999 17.4998 14.4403 17.4998 13.7499Z" fill="white"/>
<path fill-rule="evenodd" clip-rule="evenodd" d="M3.74984 10.8333C5.36067 10.8333 6.6665 12.1391 6.6665 13.7499C6.6665 15.3607 5.36067 16.6666 3.74984 16.6666C2.13901 16.6666 0.833172 15.3607 0.833172 13.7499C0.833172 12.1391 2.13901 10.8333 3.74984 10.8333ZM4.99984 13.7499C4.99984 13.0596 4.44019 12.4999 3.74984 12.4999C3.05948 12.4999 2.49984 13.0596 2.49984 13.7499C2.49984 14.4403 3.05948 14.9999 3.74984 14.9999C4.44019 14.9999 4.99984 14.4403 4.99984 13.7499Z" fill="white"/>
<path opacity="0.4" d="M6.78077 3.75692C6.55443 3.35618 6.04609 3.2148 5.64535 3.44113C4.25251 4.22779 3.22949 5.13354 2.49366 6.02895C1.33233 7.44214 0.876331 8.84436 0.834661 9.7062C0.820614 9.99668 0.959028 10.2735 1.19986 10.4365C1.44069 10.5996 1.7491 10.6252 2.01358 10.5043C2.46429 10.2982 2.97313 10.1812 3.51478 10.1812C5.21397 10.1812 6.67262 11.316 7.00847 12.7038C7.0546 12.8945 7.10827 13.1165 7.16071 13.2714C7.21037 13.4182 7.3149 13.6959 7.57312 13.8991C7.81122 14.0864 8.07033 14.1333 8.23726 14.151C8.38774 14.1669 8.56449 14.1668 8.72184 14.1667H8.7219H11.1781H11.1781C11.3367 14.1668 11.5147 14.1669 11.6662 14.1508C11.8344 14.1329 12.0954 14.0853 12.3344 13.8954C12.5922 13.6904 12.6953 13.4124 12.7444 13.2633C12.7956 13.1078 12.8471 12.8854 12.8911 12.6956C13.0555 11.9867 13.4788 11.3063 14.0412 10.8219C14.6041 10.3371 15.2493 10.0939 15.8524 10.1393C16.1213 10.1595 16.286 10.158 16.4206 10.128C16.611 10.0855 16.7834 9.98607 16.8676 9.9375L16.8677 9.9375C17.1146 9.80126 17.7212 9.46477 17.9689 9.31372C18.6875 8.87536 19.1373 8.10474 19.1656 7.2634C19.1759 6.95754 19.0991 6.57854 18.8422 6.27258C18.5433 5.91651 18.081 5.76141 17.5981 5.87504L11.8324 7.22497C10.0553 6.15937 8.22587 5.22226 6.10093 5.98981C5.86241 6.07597 5.64035 6.15243 5.5259 6.18907C5.45264 6.16775 4.92837 6.02259 4.85595 6.00338C5.30728 5.6217 5.83939 5.24566 6.46498 4.89233C6.86572 4.666 7.0071 4.15766 6.78077 3.75692Z" fill="white"/>
</svg>
