<svg width="18" height="19" viewBox="0 0 18 19" fill="none" xmlns="http://www.w3.org/2000/svg">
<path fill-rule="evenodd" clip-rule="evenodd" d="M9 0.541626C6.58375 0.541626 4.625 2.50038 4.625 4.91663C4.625 7.33287 6.58375 9.29163 9 9.29163C11.4162 9.29163 13.375 7.33287 13.375 4.91663C13.375 2.50038 11.4162 0.541626 9 0.541626ZM5.875 4.91663C5.875 3.19074 7.27411 1.79163 9 1.79163C10.7259 1.79163 12.125 3.19074 12.125 4.91663C12.125 6.64252 10.7259 8.04163 9 8.04163C7.27411 8.04163 5.875 6.64252 5.875 4.91663Z" fill="#121212"/>
<path fill-rule="evenodd" clip-rule="evenodd" d="M14.1907 12.066C14.0552 11.9895 13.9355 11.922 13.8386 11.8643C10.8769 10.1007 7.12341 10.1007 4.1617 11.8643C4.06477 11.922 3.94504 11.9895 3.80949 12.066C3.21548 12.4011 2.31755 12.9077 1.70241 13.5098C1.31769 13.8864 0.952145 14.3826 0.88569 14.9906C0.815018 15.6371 1.09707 16.2439 1.66292 16.7829C2.63913 17.713 3.81061 18.4583 5.32587 18.4583H12.6744C14.1897 18.4583 15.3612 17.713 16.3374 16.7829C16.9032 16.2439 17.1853 15.6371 17.1146 14.9906C17.0481 14.3826 16.6826 13.8864 16.2979 13.5098C15.6827 12.9077 14.7847 12.4011 14.1907 12.066ZM4.80122 12.9383C7.36886 11.4094 10.6314 11.4094 13.1991 12.9383C13.339 13.0216 13.4923 13.1086 13.6529 13.1997C14.2467 13.5366 14.9401 13.9299 15.4235 14.4031C15.7236 14.6969 15.8515 14.9392 15.872 15.1264C15.8883 15.2751 15.8507 15.5202 15.4751 15.8779C14.6119 16.7003 13.7348 17.2083 12.6744 17.2083H5.32587C4.2655 17.2083 3.38835 16.7003 2.52514 15.8779C2.14962 15.5202 2.11204 15.2751 2.12829 15.1264C2.14875 14.9392 2.27668 14.6969 2.57679 14.4031C3.06019 13.9299 3.75355 13.5366 4.34738 13.1997C4.50794 13.1086 4.66133 13.0216 4.80122 12.9383Z" fill="#121212"/>
</svg>
