<?xml version="1.0" encoding="UTF-8"?>
<svg version="1.1" xmlns="http://www.w3.org/2000/svg" width="512" height="512">
<path d="M0 0 C1.65 0 3.3 0 5 0 C5.33 81.18 5.66 162.36 6 246 C13.26 244.35 20.52 242.7 28 241 C36.625 239.375 36.625 239.375 40.1015625 238.7734375 C43.51893797 238.09544117 46.86661582 237.30329554 50.24365234 236.45166016 C51.32222504 236.18020172 52.40079773 235.90874329 53.51205444 235.62905884 C54.33307648 235.42146942 55.15409851 235.21388 56 235 C55.99870118 234.16216225 55.99740236 233.32432449 55.99606419 232.46109772 C55.96684632 212.06249451 55.97624147 191.6642266 56.02846622 171.26566315 C56.05279354 161.40097105 56.06411373 151.53658596 56.04467773 141.671875 C56.02776784 133.07245886 56.03540108 124.47347219 56.07234758 115.87411261 C56.09105325 111.32182253 56.09757592 106.77025858 56.07469368 102.2179718 C56.05352682 97.92973271 56.06527012 93.64282145 56.10184479 89.35469818 C56.10951438 87.7842147 56.1053407 86.21361988 56.08818626 84.64321136 C55.95376986 71.31270926 55.95376986 71.31270926 60.43040466 66.18981934 C61.60981761 65.11496409 62.79850019 64.05010805 64 63 C64.66 62.01 65.32 61.02 66 60 C66.66 60 67.32 60 68 60 C68 59.34 68 58.68 68 58 C69.3984375 56.58984375 69.3984375 56.58984375 71.375 54.9375 C73.68398522 52.98590554 75.96130105 51.03652957 78.16015625 48.9609375 C101.43875 27 101.43875 27 112 27 C112.33 91.68 112.66 156.36 113 223 C126.8926261 220.22147478 140.61812285 217.42352099 154.39453125 214.23828125 C160.27855061 212.91036624 166.1959595 211.79369846 172.125 210.6875 C182.94920178 208.66208724 193.69381488 206.34675882 204.4375 203.9375 C205.21354584 203.76366791 205.98959167 203.58983582 206.78915405 203.41073608 C209.8150196 202.7327787 212.84075042 202.05422461 215.86628723 201.37480164 C221.71860145 200.06099469 227.57312312 198.75906907 233.4375 197.5 C234.16316162 197.34007568 234.88882324 197.18015137 235.63647461 197.01538086 C239.14771221 196.26942104 242.40862019 195.83392463 246 196 C247.76277031 214.8355272 240.83024205 237.92393437 231.66796875 254.39453125 C227.06305262 258.82689783 218.93906397 259.02332921 212.875 260.125 C201.58027769 262.2370538 190.37928717 264.65219635 179.17337036 267.18515015 C169.15290575 269.44683055 159.11787722 271.62027486 149.05859375 273.703125 C147.95976868 273.93066971 146.8609436 274.15821442 145.7288208 274.39265442 C140.26308088 275.52245055 134.79599892 276.6454207 129.32763672 277.76245117 C127.32909337 278.17362555 125.33055783 278.58483787 123.33203125 278.99609375 C122.40152451 279.18427673 121.47101776 279.37245972 120.51231384 279.56634521 C119.66625076 279.74095276 118.82018768 279.9155603 117.94848633 280.09545898 C117.20657547 280.24675766 116.46466461 280.39805634 115.70027161 280.55393982 C113.97917268 280.8526518 113.97917268 280.8526518 113 282 C112.87718048 283.62579218 112.82217496 285.25677004 112.79467773 286.88696289 C112.77473251 287.92796646 112.75478729 288.96897003 112.73423767 290.04151917 C112.71752518 291.1737944 112.70081268 292.30606964 112.68359375 293.47265625 C112.6524221 295.20182533 112.6524221 295.20182533 112.62062073 296.96592712 C112.55500036 300.66472157 112.49618245 304.36358959 112.4375 308.0625 C112.39432665 310.56315879 112.35071276 313.06381001 112.30664062 315.56445312 C112.19930632 321.70955662 112.09756357 327.85473404 112 334 C113.04333496 333.73372803 114.08666992 333.46745605 115.16162109 333.19311523 C122.62026734 331.30118038 130.05970465 329.48244519 137.625 328.0625 C145.72213073 326.49528781 153.76105957 324.73395457 161.78759766 322.83813477 C167.02206586 321.61830146 172.27206658 320.56092051 177.55859375 319.59375 C185.58867264 318.11970197 193.54815857 316.38093704 201.51095581 314.58203125 C205.44066638 313.6949714 209.37287041 312.81907251 213.3046875 311.94140625 C214.44649727 311.68618698 214.44649727 311.68618698 215.6113739 311.42581177 C221.54945873 310.09877893 227.48863508 308.77801235 233.4375 307.5 C234.16235596 307.34023682 234.88721191 307.18047363 235.6340332 307.01586914 C239.16426398 306.26592824 242.40002229 305.94163236 246 306 C246.51982107 316.34961766 245.22634871 324.96483095 242.375 334.9375 C242.00507018 336.26013389 241.63527958 337.58280673 241.265625 338.90551758 C240.21658581 342.6157755 239.11723068 346.30965729 238 350 C237.72317383 350.91845703 237.44634766 351.83691406 237.16113281 352.78320312 C236.48711886 354.93828565 235.76632382 357.06379015 235 359.1875 C234.608125 360.27417969 234.21625 361.36085938 233.8125 362.48046875 C229.71271214 368.1795273 220.39786792 368.92630945 213.84375 370.234375 C212.39324501 370.53237503 212.39324501 370.53237503 210.91343689 370.83639526 C208.84763532 371.2601891 206.78124569 371.68112494 204.71432495 372.09942627 C199.26658483 373.20203931 193.82306039 374.32515334 188.37890625 375.4453125 C187.3010939 375.66645721 186.22328156 375.88760193 185.11280823 376.115448 C176.53738667 377.87830563 167.9836142 379.72586351 159.4375 381.625 C145.75381037 384.65941313 132.03109521 387.48322795 118.29077148 390.24853516 C110.76094195 391.77038822 103.29293253 393.38195587 95.8515625 395.29882812 C90.56494904 396.59875568 85.22136198 397.60484612 79.875 398.625 C78.77285156 398.8415625 77.67070312 399.058125 76.53515625 399.28125 C70.03625474 400.53014922 63.59886324 401.48553754 57 402 C56.16490242 399.09605981 55.8852268 396.55004395 55.91770935 393.53277588 C55.92474884 392.64379105 55.93178833 391.75480621 55.93904114 390.83888245 C55.95198715 389.871436 55.96493317 388.90398956 55.97827148 387.90722656 C55.9926828 386.37016304 55.9926828 386.37016304 56.00738525 384.80204773 C56.04036765 381.41483676 56.08070309 378.02775506 56.12109375 374.640625 C56.1453956 372.29222062 56.16923912 369.94381146 56.19264221 367.59539795 C56.25547665 361.41398673 56.32454524 355.23266019 56.39489746 349.05133057 C56.4655866 342.74389503 56.53040011 336.43639944 56.59570312 330.12890625 C56.72470726 317.75253817 56.86029521 305.37625159 57 293 C56.31301025 293.15557373 55.62602051 293.31114746 54.91821289 293.47143555 C38.32310139 297.21960619 21.69897183 300.74539333 5 304 C5.00999275 305.15392494 5.00999275 305.15392494 5.02018738 306.3311615 C5.08052296 313.61283021 5.1260877 320.89437617 5.15543652 328.17623043 C5.17103274 331.91910991 5.19215898 335.66178127 5.22631836 339.40454102 C5.25912954 343.02259402 5.27689836 346.64044797 5.28463173 350.25863838 C5.29013651 351.63281954 5.30088513 353.00699091 5.31719017 354.38108635 C5.44666306 365.75391089 3.82980762 373.88536748 -2.375 383.375 C-2.80417725 384.04635986 -3.23335449 384.71771973 -3.67553711 385.40942383 C-8.77473635 393.32028876 -14.1201431 401.0688456 -19.48095703 408.80371094 C-20.878985 410.82503199 -22.26777756 412.8522565 -23.65234375 414.8828125 C-24.43482033 416.02609335 -25.21736696 417.16932625 -26 418.3125 C-26.99 419.76076172 -26.99 419.76076172 -28 421.23828125 C-31.95240259 426.69599341 -35.79879056 430.99695763 -41.5 434.625 C-42.03625 434.99367188 -42.5725 435.36234375 -43.125 435.7421875 C-53.27012657 442.29040556 -66.13133232 444.05652205 -77.7734375 446.49609375 C-79.26928764 446.81417408 -80.76502289 447.13279512 -82.26065063 447.45191956 C-86.17313548 448.28531666 -90.08704517 449.11181047 -94.00134277 449.93664551 C-97.91188306 450.76179063 -101.82115177 451.59291001 -105.73046875 452.42382812 C-110.29203418 453.39318514 -114.85370689 454.36200724 -119.41619873 455.32699585 C-127.86034843 457.11375786 -136.29665011 458.93215264 -144.7265625 460.78515625 C-150.89200941 462.13910351 -157.05881116 463.42214044 -163.26953125 464.55078125 C-172.95312824 466.31742541 -182.52948645 468.5421695 -192.12084961 470.74682617 C-194.47927708 471.28768017 -196.83912108 471.82195779 -199.19921875 472.35546875 C-199.91067551 472.52104782 -200.62213226 472.68662689 -201.35514832 472.85722351 C-204.96755742 473.67012096 -208.29476564 474.1892398 -212 474 C-212.51982107 463.65038234 -211.22634871 455.03516905 -208.375 445.0625 C-208.00507018 443.73986611 -207.63527958 442.41719327 -207.265625 441.09448242 C-206.21658581 437.3842245 -205.11723068 433.69034271 -204 430 C-203.72317383 429.08154297 -203.44634766 428.16308594 -203.16113281 427.21679688 C-199.87253664 416.70188674 -199.87253664 416.70188674 -196.4140625 413.55859375 C-194.24633088 412.57885479 -192.36383653 412.29547957 -190 412 C-187.70768032 411.56593452 -185.41610869 411.1279127 -183.125 410.6875 C-182.46064941 410.57051758 -181.79629883 410.45353516 -181.11181641 410.33300781 C-173.28483665 408.94648402 -165.56943346 407.09204587 -157.84033203 405.24487305 C-151.27223096 403.69312484 -144.68594844 402.35224442 -138.04884338 401.13639832 C-131.14075435 399.86212567 -124.29222904 398.34651573 -117.4375 396.8125 C-103.00126733 393.60815626 -88.52599045 390.61055488 -74.03491211 387.6652832 C-73.23395111 387.50230743 -72.43299011 387.33933167 -71.60775757 387.17141724 C-70.12154421 386.86926133 -68.63516984 386.5678957 -67.14859009 386.26754761 C-62.08268109 385.23886522 -57.04860496 384.12191221 -52 383 C-51.67 360.89 -51.34 338.78 -51 316 C-57.249375 317.381875 -63.49875 318.76375 -69.9375 320.1875 C-81.5437097 322.74470786 -93.14572187 325.29387552 -104.8125 327.5625 C-114.91721451 329.52795584 -124.95680411 331.7455852 -135 334 C-145.71159279 336.40170869 -156.42552234 338.76938399 -167.1875 340.9375 C-168.16525391 341.13666016 -169.14300781 341.33582031 -170.15039062 341.54101562 C-175.75745342 342.65293139 -181.30992129 343.44784732 -187 344 C-187.30284108 336.70014448 -186.4985244 330.10983337 -184.875 323 C-184.65271729 322.00540771 -184.43043457 321.01081543 -184.20141602 319.98608398 C-182.07934195 310.80218227 -179.4824076 301.7659103 -176 293 C-175.73848145 292.28312012 -175.47696289 291.56624023 -175.20751953 290.82763672 C-173.49540629 286.70824535 -172.53810727 285.28180921 -168.45703125 283.14453125 C-166.98391128 282.7170922 -165.49596618 282.3389274 -164 282 C-162.73615479 281.70875244 -162.73615479 281.70875244 -161.44677734 281.41162109 C-158.53459041 280.78902275 -155.61510345 280.23287861 -152.6875 279.6875 C-143.96755318 278.00356009 -135.28657355 276.21205828 -126.625 274.25 C-112.58920368 271.08062664 -98.50424584 268.1563097 -84.41259766 265.24707031 C-82.64745957 264.88086597 -80.8823228 264.51465528 -79.1171875 264.1484375 C-78.35005432 263.99126251 -77.58292114 263.83408752 -76.7925415 263.67214966 C-71.22581296 262.51527153 -65.6922554 261.23364602 -60.15945435 259.92593384 C-59.37321717 259.74049924 -58.58698 259.55506464 -57.77691746 259.36401081 C-55.85117913 258.90976077 -53.92557585 258.45493827 -52 258 C-52.00775137 256.91092818 -52.01550274 255.82185637 -52.023489 254.69978237 C-52.2091823 228.15679428 -52.31380114 201.61442036 -52.33421898 175.07077694 C-52.34595526 162.234126 -52.38369089 149.39854983 -52.48339844 136.56225586 C-52.57027375 125.36937638 -52.6075873 114.17759509 -52.58627188 102.98437983 C-52.57669995 97.06128881 -52.59134225 91.14056291 -52.66541672 85.21787834 C-52.73448254 79.63289445 -52.73684033 74.05169982 -52.68990898 68.46652412 C-52.68418154 66.4264111 -52.70200667 64.3860615 -52.74625206 62.34642029 C-52.94457794 52.61532269 -52.80602659 45.06897079 -46.16722929 37.48616081 C-43.79731603 35.05620002 -41.34802968 32.76792172 -38.77271581 30.55739033 C-36.97624375 28.97912934 -35.3275059 27.31435179 -33.6706295 25.59120083 C-31 23 -31 23 -29 23 C-29 22.34 -29 21.68 -29 21 C-26.99775616 19.2198896 -24.99303195 17.57052687 -22.875 15.9375 C-22.25278564 15.4523291 -21.63057129 14.9671582 -20.98950195 14.46728516 C-15.42645837 10.19574962 -9.62008797 6.38190909 -3.66796875 2.6796875 C-1.17208333 1.24596966 -1.17208333 1.24596966 0 0 Z " fill="#2EADC0" transform="translate(239,0)"/>
<path d="M0 0 C1.62060734 17.04638831 -4.27615604 33.94824866 -9.9375 49.8125 C-10.2365625 50.69558838 -10.535625 51.57867676 -10.84375 52.48852539 C-11.15183594 53.30313232 -11.45992187 54.11773926 -11.77734375 54.95703125 C-12.03765381 55.66835205 -12.29796387 56.37967285 -12.56616211 57.11254883 C-16.1283349 61.80166135 -22.94247963 62.54162796 -28.3984375 63.45703125 C-29.81779233 63.7055171 -31.23672815 63.95640623 -32.65527344 64.20947266 C-33.37630249 64.33775452 -34.09733154 64.46603638 -34.84020996 64.59820557 C-38.27907804 65.23795204 -41.68961088 65.99275709 -45.1015625 66.76171875 C-45.78375351 66.91509201 -46.46594452 67.06846527 -47.16880798 67.22648621 C-48.58532662 67.546026 -50.00165983 67.86638885 -51.41781616 68.18753052 C-64.98382123 71.26049092 -78.57330368 74.21113632 -92.1875 77.0625 C-93.37653931 77.31173721 -93.37653931 77.31173721 -94.58959961 77.56600952 C-98.54144939 78.39416781 -102.49354608 79.22113974 -106.44580078 80.04736328 C-112.83406513 81.3831575 -119.22117905 82.72433624 -125.6065979 84.07366943 C-126.94518258 84.35640773 -128.28386578 84.63867998 -129.62265015 84.92047119 C-137.67861092 86.61733278 -145.71666573 88.3791704 -153.7421875 90.21484375 C-155.3858881 90.58861576 -157.02960544 90.96231418 -158.67333984 91.3359375 C-161.8143407 92.05026303 -164.95202876 92.77727789 -168.08837891 93.51171875 C-175.13250539 95.1326914 -181.72219075 96.46715668 -189 96 C-189.41694411 88.22781711 -188.22938225 81.3890626 -186.3125 73.875 C-186.04066895 72.78131104 -185.76883789 71.68762207 -185.48876953 70.56079102 C-183.30859869 61.92092543 -180.91962947 53.4196357 -178 45 C-177.77828125 44.14019531 -177.5565625 43.28039062 -177.328125 42.39453125 C-176.52629986 39.94896459 -175.91440042 38.72987989 -174 37 C-169.91699382 35.25998471 -165.75925077 34.3439696 -161.42675781 33.48730469 C-158.76119114 32.95204603 -156.11238277 32.35904932 -153.4609375 31.7578125 C-145.07110268 29.87251094 -136.67163884 28.11078119 -128.21484375 26.55078125 C-120.43956534 25.11268029 -112.71935559 23.46388628 -105 21.75 C-103.61977364 21.44583866 -102.23948226 21.14197225 -100.85913086 20.83837891 C-96.5721556 19.89495432 -92.28601657 18.947769 -88 18 C-82.52149828 16.78863621 -77.04255996 15.57929688 -71.5625 14.375 C-70.89433258 14.22809723 -70.22616516 14.08119446 -69.53775024 13.92984009 C-59.78199817 11.78850651 -50.00692664 9.77091056 -40.20458984 7.85424805 C-30.98967746 6.03763695 -21.83045179 3.98820961 -12.6784668 1.87866211 C-11.06452026 1.51140015 -11.06452026 1.51140015 -9.41796875 1.13671875 C-7.99133911 0.80740356 -7.99133911 0.80740356 -6.53588867 0.47143555 C-4 0 -4 0 0 0 Z " fill="#31ADC0" transform="translate(485,416)"/>
<path d="M0 0 C1.65 0 3.3 0 5 0 C5.33 81.18 5.66 162.36 6 246 C7.32 246.33 8.64 246.66 10 247 C7.69 247.33 5.38 247.66 3 248 C3 166.82 3 85.64 3 2 C1.35 2.33 -0.3 2.66 -2 3 C-1.34 2.01 -0.68 1.02 0 0 Z " fill="#B2B2B2" transform="translate(239,0)"/>
<path d="M0 0 C1.32 0 2.64 0 4 0 C4.33 64.68 4.66 129.36 5 196 C9.95 195.01 14.9 194.02 20 193 C21.32 193.33 22.64 193.66 24 194 C16.4003764 196.53320787 11.35749253 198 3 198 C3 132.99 3 67.98 3 1 C2.01 0.67 1.02 0.34 0 0 Z " fill="#A8A7A7" transform="translate(347,27)"/>
<path d="M0 0 C0.33 0 0.66 0 1 0 C1.02332688 21.62643899 1.04097814 43.25287591 1.05181217 64.87932491 C1.05697558 74.92012387 1.06401912 84.96091503 1.07543945 95.00170898 C1.08538493 103.74995302 1.0918531 112.49819141 1.09408849 121.24644095 C1.09539583 125.88154999 1.09848315 130.51664287 1.10573006 135.15174675 C1.11248813 139.50925479 1.1146174 143.86673992 1.11310768 148.2242527 C1.11338411 149.82832844 1.11539049 151.43240491 1.11920547 153.03647614 C1.12413941 155.2169273 1.12299942 157.39729057 1.12025452 159.57774353 C1.12117631 160.80096282 1.1220981 162.02418211 1.12304783 163.28446865 C1 166 1 166 0 167 C-2.18292774 167.23481693 -4.37203174 167.41363323 -6.5625 167.5625 C-7.76003906 167.64628906 -8.95757812 167.73007813 -10.19140625 167.81640625 C-11.11824219 167.87699219 -12.04507812 167.93757812 -13 168 C-10 166 -10 166 -1 164 C-0.67 109.88 -0.34 55.76 0 0 Z " fill="#859A9E" transform="translate(296,71)"/>
<path d="M0 0 C1.65 0 3.3 0 5 0 C5 35.64 5 71.28 5 108 C11.435 107.01 11.435 107.01 18 106 C19.98 106 21.96 106 24 106 C17.93775593 109.32445643 10.86061613 110.36108506 4 110 C3.16490242 107.09605981 2.8852268 104.55004395 2.91770935 101.53277588 C2.92474884 100.64379105 2.93178833 99.75480621 2.93904114 98.83888245 C2.95198715 97.871436 2.96493317 96.90398956 2.97827148 95.90722656 C2.98787903 94.88251755 2.99748657 93.85780853 3.00738525 92.80204773 C3.04036765 89.41483676 3.08070309 86.02775506 3.12109375 82.640625 C3.1453956 80.29222062 3.16923912 77.94381146 3.19264221 75.59539795 C3.25547665 69.41398673 3.32454524 63.23266019 3.39489746 57.05133057 C3.4655866 50.74389503 3.53040011 44.43639944 3.59570312 38.12890625 C3.72470726 25.75253817 3.86029521 13.37625159 4 1 C2.68 0.67 1.36 0.34 0 0 Z " fill="#8A9EA1" transform="translate(292,292)"/>
<path d="M0 0 C0.33 0 0.66 0 1 0 C0.88487847 1.72985242 0.75744323 3.45888751 0.625 5.1875 C0.55539063 6.15042969 0.48578125 7.11335938 0.4140625 8.10546875 C0 11 0 11 -0.97265625 13.38671875 C-2.53354187 17.35718444 -2.80648927 21.43304037 -3.29882812 25.6484375 C-3.65349757 28.57958995 -4.06270316 31.18810948 -5 34 C-4.22398438 33.79503906 -3.44796875 33.59007812 -2.6484375 33.37890625 C5.63876329 31.31205068 13.47760031 30.37053912 22 30 C18.5339889 32.31067407 15.39046304 32.8632969 11.375 33.5625 C10.30282227 33.75646362 10.30282227 33.75646362 9.20898438 33.9543457 C4.15385816 34.84976301 -0.88479699 35.54328545 -6 36 C-6.37094082 28.34762829 -5.30307213 21.49949001 -3.5625 14.0625 C-3.33240234 13.03576172 -3.10230469 12.00902344 -2.86523438 10.95117188 C-2.02644436 7.24347689 -1.20268099 3.60804296 0 0 Z " fill="#9EB0B3" transform="translate(58,308)"/>
<path d="M0 0 C0 23.1 0 46.2 0 70 C-0.66 69.67 -1.32 69.34 -2 69 C-1.67 46.89 -1.34 24.78 -1 2 C-3.64 2.66 -6.28 3.32 -9 4 C-10.32 3.67 -11.64 3.34 -13 3 C-8.86395936 0.24263957 -4.91089275 0 0 0 Z " fill="#A3A5A4" transform="translate(189,314)"/>
<path d="M0 0 C1.26897568 3.80692704 0.51387041 4.94215084 -1.0625 8.5625 C-1.46597656 9.53316406 -1.86945313 10.50382812 -2.28515625 11.50390625 C-5.1569391 15.68401842 -9.27553341 15.87901374 -13.98046875 16.81640625 C-15.38203509 17.06944863 -16.78440266 17.3180895 -18.1875 17.5625 C-23.65610145 18.51432129 -23.65610145 18.51432129 -29 20 C-30.72795352 20.06802967 -32.45835365 20.08495645 -34.1875 20.0625 C-35.53908203 20.04896484 -35.53908203 20.04896484 -36.91796875 20.03515625 C-37.60503906 20.02355469 -38.29210937 20.01195312 -39 20 C-39 19.67 -39 19.34 -39 19 C-38.23856689 18.85900879 -37.47713379 18.71801758 -36.69262695 18.57275391 C-33.23157463 17.9288004 -29.77204802 17.2769847 -26.3125 16.625 C-25.11431641 16.40328125 -23.91613281 16.1815625 -22.68164062 15.953125 C-20.94624023 15.62441406 -20.94624023 15.62441406 -19.17578125 15.2890625 C-18.11270752 15.09006348 -17.04963379 14.89106445 -15.9543457 14.68603516 C-13.12201221 14.02833273 -10.62080162 13.25763201 -8 12 C-7.67 11.34 -7.34 10.68 -7 10 C-6.34 10 -5.68 10 -5 10 C-3.35 6.7 -1.7 3.4 0 0 Z " fill="#89A3A8" transform="translate(474,462)"/>
<path d="M0 0 C0.66 0.33 1.32 0.66 2 1 C-16.36897534 21.2917092 -16.36897534 21.2917092 -23 25 C-21.64763423 22.06120516 -20.10057341 19.70767089 -18 17.25 C-17.484375 16.63640625 -16.96875 16.0228125 -16.4375 15.390625 C-15 14 -15 14 -13 14 C-13 13.34 -13 12.68 -13 12 C-11.42578125 10.44921875 -11.42578125 10.44921875 -9.3125 8.6875 C-6.04699036 5.91500692 -2.98084015 3.07399141 0 0 Z " fill="#71AAB3" transform="translate(320,46)"/>
<path d="M0 0 C1.134375 0.020625 2.26875 0.04125 3.4375 0.0625 C3.4375 0.3925 3.4375 0.7225 3.4375 1.0625 C1.4575 1.7225 -0.5225 2.3825 -2.5625 3.0625 C-2.8925 20.2225 -3.2225 37.3825 -3.5625 55.0625 C-2.5725 55.3925 -1.5825 55.7225 -0.5625 56.0625 C-1.8825 56.0625 -3.2025 56.0625 -4.5625 56.0625 C-4.58776563 48.24797248 -4.60533105 40.43345542 -4.61743164 32.61889648 C-4.62247383 29.95808519 -4.62930736 27.29727668 -4.63793945 24.63647461 C-4.65001009 20.82144484 -4.65572929 17.00645156 -4.66015625 13.19140625 C-4.66531754 11.99350967 -4.67047882 10.7956131 -4.67579651 9.56141663 C-4.67587204 8.4603508 -4.67594757 7.35928497 -4.67602539 6.22485352 C-4.678246 5.25000504 -4.68046661 4.27515656 -4.68275452 3.27076721 C-4.48069925 -0.43962993 -3.8676702 0.06785386 0 0 Z " fill="#A8A9A9" transform="translate(354.5625,278.9375)"/>
<path d="M0 0 C-3.4160344 2.27735627 -6.42025906 2.77868581 -10.375 3.4375 C-16.76895413 4.55316489 -23.04068718 5.91916267 -29.328125 7.546875 C-31.98077082 7.99673891 -33.49097753 7.88413173 -36 7 C-31.9988113 5.23185566 -28.10405091 4.31828535 -23.8125 3.5 C-22.47652414 3.24368947 -21.14058669 2.9871786 -19.8046875 2.73046875 C-17.92136719 2.36888672 -17.92136719 2.36888672 -16 2 C-14.1455727 1.60538949 -12.29136233 1.20975621 -10.4375 0.8125 C-6.9083555 0.09960103 -3.61427911 -0.19022522 0 0 Z " fill="#8DA9AE" transform="translate(141,325)"/>
<path d="M0 0 C-4.64540566 4.64540566 -13.78474417 4.27371679 -20.06640625 4.75390625 C-22.00410175 4.80004402 -22.00410175 4.80004402 -23 6 C-25.18292774 6.23481693 -27.37203174 6.41363323 -29.5625 6.5625 C-30.76003906 6.64628906 -31.95757812 6.73007812 -33.19140625 6.81640625 C-34.11824219 6.87699219 -35.04507813 6.93757813 -36 7 C-32.5839656 4.72264373 -29.57974094 4.22131419 -25.625 3.5625 C-19.23104587 2.44683511 -12.95931282 1.08083733 -6.671875 -0.546875 C-4.01922918 -0.99673891 -2.50902247 -0.88413173 0 0 Z " fill="#92ADB1" transform="translate(124,398)"/>
<path d="M0 0 C-1.31307372 2.89852365 -2.72684638 4.98277217 -4.96875 7.234375 C-5.82533203 8.09482422 -5.82533203 8.09482422 -6.69921875 8.97265625 C-7.59060547 9.85244141 -7.59060547 9.85244141 -8.5 10.75 C-9.39138672 11.65298828 -9.39138672 11.65298828 -10.30078125 12.57421875 C-10.87183594 13.14269531 -11.44289062 13.71117187 -12.03125 14.296875 C-12.55267578 14.81604492 -13.07410156 15.33521484 -13.61132812 15.87011719 C-15 17 -15 17 -17 17 C-15.68692628 14.10147635 -14.27315362 12.01722783 -12.03125 9.765625 C-11.17466797 8.90517578 -11.17466797 8.90517578 -10.30078125 8.02734375 C-9.70652344 7.44082031 -9.11226562 6.85429687 -8.5 6.25 C-7.90574219 5.64800781 -7.31148437 5.04601562 -6.69921875 4.42578125 C-6.12816406 3.85730469 -5.55710938 3.28882813 -4.96875 2.703125 C-4.44732422 2.18395508 -3.92589844 1.66478516 -3.38867188 1.12988281 C-2 0 -2 0 0 0 Z " fill="#6CAEB8" transform="translate(210,23)"/>
<path d="M0 0 C-2.76928005 1.8461867 -4.13698806 2.41196197 -7.2734375 3.0703125 C-8.0984375 3.24433594 -8.9234375 3.41835938 -9.7734375 3.59765625 C-10.63195312 3.77167969 -11.49046875 3.94570313 -12.375 4.125 C-13.22578125 4.30675781 -14.0765625 4.48851562 -14.953125 4.67578125 C-19.01806019 5.51789399 -22.8238433 6.25778745 -27 6 C-26 4 -26 4 -23.55859375 3.18359375 C-15.63878869 1.29037377 -8.18743107 -0.20468578 0 0 Z " fill="#99A8AB" transform="translate(354,500)"/>
<path d="M0 0 C0.66 0 1.32 0 2 0 C1.67 0.99 1.34 1.98 1 3 C-3.52300096 4.9157053 -8.31688358 5.78207548 -13.125 6.6875 C-14.17880859 6.90116211 -14.17880859 6.90116211 -15.25390625 7.11914062 C-19.02962478 7.83645577 -21.19556665 7.95110834 -25 7 C-20.545 6.505 -20.545 6.505 -16 6 C-16 5.34 -16 4.68 -16 4 C-10.61972975 2.80911014 -5.54708616 1.7080481 0 2 C0 1.34 0 0.68 0 0 Z " fill="#95A6A9" transform="translate(468,253)"/>
<path d="M0 0 C-1.51559696 1.51559696 -3.01677 1.26240971 -5.125 1.4375 C-9.29974017 1.85163422 -13.00885498 2.72623031 -17 4 C-17 4.66 -17 5.32 -17 6 C-18.65 6.66 -20.3 7.32 -22 8 C-21.4375 5.125 -21.4375 5.125 -20 2 C-14.77921907 -0.33268935 -5.24500558 -2.62250279 0 0 Z " fill="#79A6AD" transform="translate(62,412)"/>
<path d="M0 0 C-0.99 0 -1.98 0 -3 0 C-3 0.66 -3 1.32 -3 2 C-10.63809855 3.97537032 -18.1332874 4.57477229 -26 5 C-22.03069957 2.35379971 -18.1871532 1.7692057 -13.5625 0.8125 C-12.70333984 0.62236328 -11.84417969 0.43222656 -10.95898438 0.23632812 C-9.7127832 -0.02567383 -9.7127832 -0.02567383 -8.44140625 -0.29296875 C-7.30747437 -0.53309692 -7.30747437 -0.53309692 -6.15063477 -0.77807617 C-3.83604673 -1.01691832 -2.20497644 -0.69665379 0 0 Z " fill="#93ADB1" transform="translate(432,208)"/>
<path d="M0 0 C-2.99799992 0.67696772 -5.99788223 1.34175788 -9 2 C-9.83917969 2.19078125 -10.67835937 2.3815625 -11.54296875 2.578125 C-16.82072021 3.72368346 -21.6001862 4.1999931 -27 4 C-19.37872041 -0.08404893 -8.40543449 -2.27552876 0 0 Z " fill="#89A9AE" transform="translate(80,339)"/>
<path d="M0 0 C0 0.33 0 0.66 0 1 C-2.87333181 1.67466072 -5.74831482 2.3399234 -8.625 3 C-9.43324219 3.19078125 -10.24148437 3.3815625 -11.07421875 3.578125 C-15.47204169 4.57925543 -19.45561039 5.2353082 -24 5 C-23.360625 4.690625 -22.72125 4.38125 -22.0625 4.0625 C-20.06389179 3.1654837 -20.06389179 3.1654837 -19 2 C-12.62458017 0.26699897 -6.57975358 -0.21225012 0 0 Z " fill="#9FB0B3" transform="translate(60,467)"/>
<path d="M0 0 C-3.22961572 2.15307714 -5.61127654 2.77234869 -9.375 3.625 C-11.05722656 4.01558594 -11.05722656 4.01558594 -12.7734375 4.4140625 C-15.6152708 4.93013392 -18.12444684 5.11846848 -21 5 C-20.67 4.34 -20.34 3.68 -20 3 C-13.47739598 0.93923525 -6.84558208 -0.47759875 0 0 Z " fill="#96A4A7" transform="translate(409,488)"/>
<path d="M0 0 C-0.99 0 -1.98 0 -3 0 C-3.33 0.99 -3.66 1.98 -4 3 C-4.99 2.67 -5.98 2.34 -7 2 C-7 2.99 -7 3.98 -7 5 C-7.66 5 -8.32 5 -9 5 C-9 6.65 -9 8.3 -9 10 C-9.66 10 -10.32 10 -11 10 C-11 11.65 -11 13.3 -11 15 C-11.66 15 -12.32 15 -13 15 C-9.61806131 2.25269263 -9.61806131 2.25269263 -6.0625 -0.5 C-3.67361265 -1.07912421 -2.2947314 -0.81954693 0 0 Z " fill="#8DAFB5" transform="translate(75,284)"/>
<path d="M0 0 C0 0.33 0 0.66 0 1 C-2.3736397 1.50734284 -4.74857425 2.00602386 -7.125 2.5 C-8.12273437 2.71462891 -8.12273437 2.71462891 -9.140625 2.93359375 C-13.16056422 3.7612283 -16.89904899 4.15330658 -21 4 C-20.67 3.34 -20.34 2.68 -20 2 C-13.49710284 -0.12822089 -6.77299898 -0.25939145 0 0 Z " fill="#99A8AB" transform="translate(431,484)"/>
<path d="M0 0 C-12.375 4.125 -12.375 4.125 -16.6875 4.0625 C-17.89986328 4.04896484 -17.89986328 4.04896484 -19.13671875 4.03515625 C-20.05904297 4.01775391 -20.05904297 4.01775391 -21 4 C-17.61847808 2.10203794 -14.26563452 1.19776958 -10.5 0.3125 C-9.3759375 0.04050781 -8.251875 -0.23148438 -7.09375 -0.51171875 C-4.2315358 -0.9634571 -2.67758663 -0.97784414 0 0 Z " fill="#85A7AC" transform="translate(371,221)"/>
<path d="M0 0 C0 0.66 0 1.32 0 2 C-2.24847481 2.36372387 -4.49886188 2.71564096 -6.75 3.0625 C-8.62945312 3.35833984 -8.62945312 3.35833984 -10.546875 3.66015625 C-13.50016589 3.95080818 -15.2602414 3.98935727 -18 3 C-15.93918639 2.49309416 -13.87626474 1.99475381 -11.8125 1.5 C-10.66394531 1.2215625 -9.51539063 0.943125 -8.33203125 0.65625 C-5.43181171 0.08504615 -2.93903615 -0.13283779 0 0 Z " fill="#98AFB3" transform="translate(485,306)"/>
<path d="M0 0 C0.66 0 1.32 0 2 0 C1.34 1.98 0.68 3.96 0 6 C-2.31 6.33 -4.62 6.66 -7 7 C-7 6.34 -7 5.68 -7 5 C-4 3 -4 3 -1 2 C-0.67 1.34 -0.34 0.68 0 0 Z " fill="#7CAAB1" transform="translate(470,360)"/>
<path d="M0 0 C0.90105469 0.00902344 1.80210937 0.01804687 2.73046875 0.02734375 C3.41753906 0.03894531 4.10460937 0.05054688 4.8125 0.0625 C4.8125 0.3925 4.8125 0.7225 4.8125 1.0625 C-0.64211169 2.44779821 -5.55468401 3.3021943 -11.1875 3.0625 C-7.23784431 0.4293962 -4.63874115 -0.06024339 0 0 Z " fill="#A1ADAF" transform="translate(365.1875,496.9375)"/>
<path d="M0 0 C0 0.66 0 1.32 0 2 C-1.41377782 2.36552803 -2.83120576 2.71695495 -4.25 3.0625 C-5.03890625 3.25972656 -5.8278125 3.45695312 -6.640625 3.66015625 C-9.10394822 4.01497267 -10.65604132 3.76877544 -13 3 C-8.86395936 0.24263957 -4.91089275 0 0 0 Z " fill="#84A6AB" transform="translate(189,314)"/>
<path d="M0 0 C0.91007813 0.00902344 1.82015625 0.01804687 2.7578125 0.02734375 C3.45648438 0.03894531 4.15515625 0.05054688 4.875 0.0625 C4.875 0.3925 4.875 0.7225 4.875 1.0625 C-0.19976794 2.32555335 -4.85296354 3.33286084 -10.125 3.0625 C-6.25266576 0.48094384 -4.58963981 -0.05884154 0 0 Z " fill="#9BAEB1" transform="translate(168.125,442.9375)"/>
<path d="M0 0 C-2.58926331 2.58926331 -4.02705279 2.37398043 -7.625 2.625 C-8.62789063 2.69976562 -9.63078125 2.77453125 -10.6640625 2.8515625 C-11.82035156 2.92503906 -11.82035156 2.92503906 -13 3 C-9.54666565 -0.45333435 -4.63654999 -1.85462 0 0 Z " fill="#7CA4AB" transform="translate(117,275)"/>
<path d="M0 0 C1.33804687 0.04060547 1.33804687 0.04060547 2.703125 0.08203125 C3.37859375 0.11683594 4.0540625 0.15164063 4.75 0.1875 C4.75 0.5175 4.75 0.8475 4.75 1.1875 C-4.66002278 3.48362756 -4.66002278 3.48362756 -9.25 3.1875 C-6.10408067 0.38704377 -4.182936 -0.16511589 0 0 Z " fill="#9AADB0" transform="translate(396.25,269.8125)"/>
<path d="M0 0 C1.33804687 0.04060547 1.33804687 0.04060547 2.703125 0.08203125 C3.37859375 0.11683594 4.0540625 0.15164063 4.75 0.1875 C4.75 0.5175 4.75 0.8475 4.75 1.1875 C-4.66002278 3.48362756 -4.66002278 3.48362756 -9.25 3.1875 C-6.10408067 0.38704377 -4.182936 -0.16511589 0 0 Z " fill="#9CADB0" transform="translate(345.25,390.8125)"/>
<path d="M0 0 C-2.90092502 1.93395001 -3.89674737 2.30131941 -7.1875 2.625 C-8.445625 2.74875 -9.70375 2.8725 -11 3 C-8.89427904 -1.21144191 -4.11694326 -0.07767817 0 0 Z " fill="#8DA2A5" transform="translate(338,503)"/>
</svg>
