<svg width="16" height="15" viewBox="0 0 16 15" fill="none" xmlns="http://www.w3.org/2000/svg">
<path d="M7.12959 1.83333C7.49778 1.83267 7.79572 1.53366 7.79505 1.16547C7.79439 0.79728 7.49538 0.49934 7.12719 0.500001C5.85143 0.502295 4.81664 0.517817 3.98882 0.65154C3.14163 0.788392 2.43906 1.05917 1.87514 1.62194C1.26569 2.23016 0.998313 2.99949 0.872146 3.93601C0.749973 4.84288 0.749985 5.99947 0.75 7.45008V7.54954C0.749985 9.00016 0.749972 10.1568 0.872144 11.0636C0.998312 12.0001 1.26569 12.7695 1.87514 13.3777C2.48441 13.9857 3.25475 14.2523 4.19253 14.3781C5.10097 14.5 6.25967 14.5 7.71345 14.5H7.81258C9.26636 14.5 10.4251 14.5 11.3335 14.3781C12.2713 14.2523 13.0416 13.9857 13.6509 13.3777C14.496 12.5343 14.6896 11.3721 14.7495 9.85973C14.7641 9.49183 14.4776 9.18177 14.1097 9.16719C13.7418 9.15261 13.4318 9.43904 13.4172 9.80694C13.3577 11.3084 13.1581 11.9858 12.7091 12.4339C12.3889 12.7534 11.9466 12.9506 11.1562 13.0566C10.3467 13.1653 9.27768 13.1667 7.76302 13.1667C6.24836 13.1667 5.1793 13.1653 4.36984 13.0566C3.57942 12.9506 3.13713 12.7534 2.817 12.4339C2.49705 12.1146 2.29972 11.6738 2.19354 10.8856C2.08476 10.0781 2.08333 9.01152 2.08333 7.49982C2.08333 5.98811 2.08476 4.92153 2.19354 4.11403C2.29972 3.32585 2.49705 2.88501 2.817 2.5657C3.11431 2.269 3.51615 2.07851 4.20144 1.96781C4.9061 1.85398 5.83186 1.83567 7.12959 1.83333Z" fill="white"/>
<path d="M14.8571 4.9374C14.6562 4.70963 14.3672 4.45851 14.0318 4.16715L12.8417 3.13314C12.7296 3.03577 12.6219 2.93983 12.5187 2.84802C12.265 2.62209 12.0392 2.4211 11.8462 2.28513C11.5436 2.07192 11.1844 1.91583 10.7455 2.04974C10.4356 2.1443 10.2463 2.36643 10.1405 2.59151C10.0405 2.80434 10.0041 3.03875 9.99015 3.23547C9.97988 3.37987 9.98055 3.52387 9.98503 3.65372C9.95828 3.65322 9.93142 3.65271 9.90447 3.65221C9.22016 3.63929 8.47159 3.62516 7.76597 3.73993C6.21692 3.9919 5.14822 4.68268 4.47849 5.6523C3.81886 6.6073 3.58333 7.77875 3.58333 8.93875C3.58333 9.11983 3.68114 9.28676 3.83905 9.37523C3.99697 9.46369 4.19034 9.45987 4.34465 9.36524C4.44449 9.30401 4.54271 9.24306 4.63974 9.18286C5.36362 8.73371 6.02149 8.32553 6.79529 8.14252C7.34917 8.01153 7.94914 7.97434 8.58311 7.97274C8.91079 7.97191 9.2384 7.98042 9.56595 7.98894L9.57557 7.98918C9.71153 7.99272 9.84846 7.99628 9.98548 7.99916C9.9806 8.13225 9.97955 8.2809 9.99015 8.42997C10.0041 8.62669 10.0405 8.8611 10.1405 9.07393C10.2463 9.29902 10.4356 9.52115 10.7456 9.61571C11.1527 9.73993 11.5428 9.62763 11.8775 9.38101C12.099 9.21782 12.3014 9.02896 12.5035 8.84044C12.6153 8.73615 12.727 8.63197 12.8417 8.5323L14.0318 7.4983C14.3672 7.20693 14.6562 6.9558 14.8571 6.72803C15.0687 6.48801 15.25 6.20065 15.25 5.83272C15.25 5.46479 15.0687 5.17742 14.8571 4.9374Z" fill="white"/>
</svg>
