<svg width="24" height="24" viewBox="0 0 24 24" fill="none" xmlns="http://www.w3.org/2000/svg">
<path opacity="0.4" d="M2.25 13.15C2.25 7.76502 6.62 3.40002 12 3.40002C17.38 3.40002 21.75 7.76502 21.75 13.15C21.75 18.535 17.38 22.9 12 22.9C6.62 22.9 2.25 18.535 2.25 13.15Z" fill="white"/>
<path d="M10 1.1496C9.45002 1.1496 9.00002 1.5976 9.00002 2.1496C9.00002 2.7016 9.45002 3.1496 10 3.1496H11V3.4506C11.33 3.4166 11.66 3.3996 12 3.3996C12.34 3.3996 12.67 3.4166 13 3.4506V3.1496H14C14.55 3.1496 15 2.7016 15 2.1496C15 1.5976 14.55 1.1496 14 1.1496H10Z" fill="white"/>
<path d="M6.70998 4.9426C6.70998 4.9456 6.71004 4.9496 6.72004 4.9536C6.15004 5.3186 5.63002 5.7416 5.15002 6.2126L4.29006 5.35659C3.90006 4.96659 3.90006 4.3326 4.29006 3.9426C4.68006 3.5516 5.31998 3.5516 5.70998 3.9426L6.70998 4.9426Z" fill="white"/>
<path d="M19.71 5.35659L18.85 6.2126C18.37 5.7416 17.85 5.3186 17.28 4.9536C17.29 4.9496 17.2901 4.9426 17.2901 4.9426L18.2901 3.9426C18.6801 3.5516 19.32 3.5516 19.71 3.9426C20.1 4.3326 20.1 4.96659 19.71 5.35659Z" fill="white"/>
<path d="M13 9.6496C13 9.0976 12.55 8.6496 12 8.6496C11.45 8.6496 11 9.0976 11 9.6496V13.6496C11 13.9146 11.11 14.1696 11.29 14.3566L13.29 16.3566C13.68 16.7476 14.3199 16.7476 14.7099 16.3566C15.0999 15.9666 15.0999 15.3326 14.7099 14.9426L13 13.2356V9.6496Z" fill="white"/>
</svg>
