<svg width="22" height="23" viewBox="0 0 22 23" fill="none" xmlns="http://www.w3.org/2000/svg">
<path fill-rule="evenodd" clip-rule="evenodd" d="M11.0002 6.75C9.20526 6.75 7.75018 8.20507 7.75018 10C7.75018 11.7949 9.20526 13.25 11.0002 13.25C12.7951 13.25 14.2502 11.7949 14.2502 10C14.2502 8.20507 12.7951 6.75 11.0002 6.75ZM9.25018 10C9.25018 9.0335 10.0337 8.25 11.0002 8.25C11.9667 8.25 12.7502 9.0335 12.7502 10C12.7502 10.9665 11.9667 11.75 11.0002 11.75C10.0337 11.75 9.25018 10.9665 9.25018 10Z" fill="#121212"/>
<path d="M4.50018 10C5.05247 10 5.50018 10.4477 5.50018 11V11.009C5.50018 11.5613 5.05247 12.009 4.50018 12.009C3.9479 12.009 3.50018 11.5613 3.50018 11.009V11C3.50018 10.4477 3.9479 10 4.50018 10Z" fill="#121212"/>
<path d="M18.5002 8.99219C18.5002 8.4399 18.0525 7.99219 17.5002 7.99219C16.9479 7.99219 16.5002 8.4399 16.5002 8.99219V9.00117C16.5002 9.55345 16.9479 10.0012 17.5002 10.0012C18.0525 10.0012 18.5002 9.55345 18.5002 9.00117V8.99219Z" fill="#121212"/>
<path fill-rule="evenodd" clip-rule="evenodd" d="M10.6828 1.82046C12.13 1.14454 13.9917 0.75 16.0002 0.75C17.12 0.75 18.1907 0.872567 19.1676 1.09633L19.226 1.10967C19.7729 1.23459 20.2184 1.33636 20.7066 1.72264C20.9986 1.95372 21.3232 2.36108 21.4833 2.69734C21.7515 3.26081 21.7509 3.81824 21.7503 4.50843L21.7502 15.386C21.7502 16.9532 20.1592 17.8623 18.8327 17.5585C17.9703 17.3609 17.0122 17.25 16.0002 17.25C14.1745 17.25 12.5354 17.6107 11.3176 18.1795C9.87036 18.8555 8.00869 19.25 6.0002 19.25C4.88036 19.25 3.80968 19.1274 2.83275 18.9037L2.77438 18.8903C2.22749 18.7654 1.78197 18.6636 1.2938 18.2774C1.00176 18.0463 0.677151 17.6389 0.517105 17.3027C0.248915 16.7392 0.249456 16.1817 0.250127 15.4915L0.250195 4.61397C0.250195 3.04678 1.8412 2.13772 3.16764 2.44153C4.03008 2.63907 4.98819 2.75 6.0002 2.75C7.82584 2.75 9.46495 2.38927 10.6828 1.82046ZM16.0002 2.25C14.1745 2.25 12.5354 2.61073 11.3176 3.17954C9.87036 3.85546 8.00869 4.25 6.0002 4.25C4.88035 4.25 3.80968 4.12743 2.83275 3.90367C2.23925 3.76774 1.7502 4.2115 1.7502 4.61397V15.386C1.7502 16.2285 1.76501 16.4342 1.87152 16.658C1.9329 16.787 2.11256 17.0124 2.22456 17.1011C2.42755 17.2617 2.55905 17.3021 3.16764 17.4415C4.03008 17.6391 4.98819 17.75 6.0002 17.75C7.82584 17.75 9.46495 17.3893 10.6828 16.8205C12.13 16.1445 13.9917 15.75 16.0002 15.75C17.12 15.75 18.1907 15.8726 19.1676 16.0963C19.7611 16.2323 20.2502 15.7885 20.2502 15.386V4.61397C20.2502 3.77149 20.2354 3.56576 20.1289 3.34199C20.0675 3.21303 19.8878 2.98756 19.7758 2.89894C19.5728 2.73831 19.4413 2.69786 18.8327 2.55847C17.9703 2.36093 17.0122 2.25 16.0002 2.25Z" fill="#121212"/>
<path d="M6.00018 20.75C4.17453 20.75 2.53542 20.3893 1.31756 19.8205C0.942259 19.6452 0.495925 19.8073 0.320641 20.1826C0.145358 20.5579 0.307502 21.0043 0.6828 21.1795C2.13001 21.8555 3.99168 22.25 6.00018 22.25C8.00867 22.25 9.87034 21.8555 11.3176 21.1795C12.5354 20.6107 14.1745 20.25 16.0002 20.25C17.8258 20.25 19.4649 20.6107 20.6828 21.1795C21.0581 21.3548 21.5044 21.1927 21.6797 20.8174C21.855 20.4421 21.6929 19.9957 21.3176 19.8205C19.8703 19.1445 18.0087 18.75 16.0002 18.75C13.9917 18.75 12.13 19.1445 10.6828 19.8205C9.46493 20.3893 7.82583 20.75 6.00018 20.75Z" fill="#121212"/>
</svg>
